<?xml version="1.0" encoding="UTF-8" standalone="no"?>
<!-- Created with Inkscape (http://www.inkscape.org/) -->

<svg
   xmlns:dc="http://purl.org/dc/elements/1.1/"
   xmlns:cc="http://creativecommons.org/ns#"
   xmlns:rdf="http://www.w3.org/1999/02/22-rdf-syntax-ns#"
   xmlns:svg="http://www.w3.org/2000/svg"
   xmlns="http://www.w3.org/2000/svg"
   xmlns:xlink="http://www.w3.org/1999/xlink"
   xmlns:sodipodi="http://sodipodi.sourceforge.net/DTD/sodipodi-0.dtd"
   xmlns:inkscape="http://www.inkscape.org/namespaces/inkscape"
   id="svg2"
   height="190.00000"
   width="140.00000"
   y="0.0000000"
   x="0.0000000"
   version="1.0"
   sodipodi:version="0.32"
   inkscape:version="0.48.1 r9760"
   sodipodi:docname="nicubunu_Card_backs_frame.svg">
  <sodipodi:namedview
     id="base"
     pagecolor="#ffffff"
     bordercolor="#666666"
     borderopacity="1.0"
     inkscape:pageopacity="0.0"
     inkscape:pageshadow="2"
     inkscape:window-width="1920"
     inkscape:window-height="1007"
     inkscape:zoom="4.0315789"
     inkscape:cx="-25.992168"
     inkscape:cy="95"
     inkscape:window-x="0"
     inkscape:window-y="24"
     inkscape:current-layer="svg2"
     showgrid="false"
     inkscape:window-maximized="1" />
  <defs
     id="defs3">
    <linearGradient
       id="linearGradient8302">
      <stop
         id="stop8314"
         offset="0.0000000"
         style="stop-color:#830007;stop-opacity:1.0000000;" />
      <stop
         id="stop8316"
         offset="1.0000000"
         style="stop-color:#ff0000;stop-opacity:1.0000000;" />
    </linearGradient>
    <linearGradient
       id="linearGradient2060">
      <stop
         id="stop2062"
         offset="0.0000000"
         style="stop-color:#ebf0d0;stop-opacity:1.0000000;" />
      <stop
         id="stop2064"
         offset="1.0000000"
         style="stop-color:#ffffeb;stop-opacity:1.0000000;" />
    </linearGradient>
    <linearGradient
       gradientTransform="translate(0,-1)"
       gradientUnits="userSpaceOnUse"
       xlink:href="#linearGradient2060"
       id="linearGradient4853"
       y2="128.69501"
       x2="109.00000"
       y1="63.099518"
       x1="2.0000000" />
    <linearGradient
       gradientTransform="scale(0.854242, 1.17063)"
       gradientUnits="userSpaceOnUse"
       xlink:href="#linearGradient8302"
       id="linearGradient8318"
       y2="18.728254"
       x2="36.519855"
       y1="146.61710"
       x1="138.23376" />
    <linearGradient
       gradientTransform="matrix(0.855373,0,0,1.16908,-144.98623,-13.608816)"
       gradientUnits="userSpaceOnUse"
       xlink:href="#linearGradient8302"
       id="linearGradient9086"
       y2="140.45406"
       x2="146.39938"
       y1="17.152563"
       x1="22.029089" />
    <linearGradient
       gradientTransform="translate(0,-1)"
       gradientUnits="userSpaceOnUse"
       xlink:href="#linearGradient2060"
       id="linearGradient12508"
       y2="128.69501"
       x2="109.00000"
       y1="63.099518"
       x1="2.0000000" />
    <linearGradient
       gradientTransform="translate(0,-1)"
       gradientUnits="userSpaceOnUse"
       xlink:href="#linearGradient2060"
       id="linearGradient12510"
       y2="128.69501"
       x2="109.00000"
       y1="63.099518"
       x1="2.0000000" />
    <linearGradient
       gradientTransform="translate(0,-1)"
       gradientUnits="userSpaceOnUse"
       xlink:href="#linearGradient2060"
       id="linearGradient12512"
       y2="128.69501"
       x2="109.00000"
       y1="63.099518"
       x1="2.0000000" />
    <linearGradient
       gradientTransform="translate(0,-1)"
       gradientUnits="userSpaceOnUse"
       xlink:href="#linearGradient2060"
       id="linearGradient12514"
       y2="128.69501"
       x2="109.00000"
       y1="63.099518"
       x1="2.0000000" />
    <linearGradient
       inkscape:collect="always"
       xlink:href="#linearGradient2060"
       id="linearGradient3903"
       gradientUnits="userSpaceOnUse"
       gradientTransform="translate(0,-1)"
       x1="2.0000000"
       y1="63.099518"
       x2="109.00000"
       y2="128.69501" />
    <linearGradient
       inkscape:collect="always"
       xlink:href="#linearGradient2060"
       id="linearGradient3905"
       gradientUnits="userSpaceOnUse"
       gradientTransform="translate(0,-1)"
       x1="2.0000000"
       y1="63.099518"
       x2="109.00000"
       y2="128.69501" />
    <linearGradient
       inkscape:collect="always"
       xlink:href="#linearGradient2060"
       id="linearGradient3907"
       gradientUnits="userSpaceOnUse"
       gradientTransform="translate(0,-1)"
       x1="2.0000000"
       y1="63.099518"
       x2="109.00000"
       y2="128.69501" />
    <linearGradient
       inkscape:collect="always"
       xlink:href="#linearGradient2060"
       id="linearGradient3909"
       gradientUnits="userSpaceOnUse"
       gradientTransform="translate(0,-1)"
       x1="2.0000000"
       y1="63.099518"
       x2="109.00000"
       y2="128.69501" />
  </defs>
  <path
     id="path1385"
     style="fill:#e5e5f0;fill-opacity:0.25968993;stroke:#ffffff;stroke-opacity:1"
     d="m 22.791666,10.208335 94.416664,0 c 8.12534,0 14.66667,6.541333 14.66667,14.666666 l 0,140.249989 c 0,8.12534 -6.54133,14.66667 -14.66667,14.66667 l -94.416664,0 C 14.666333,179.79166 8.125,173.25033 8.125,165.125 l 0,-140.249999 c 0,-8.125333 6.541333,-14.666666 14.666666,-14.666666 z"
     inkscape:connector-curvature="0" />
  <g
     id="g6732"
     transform="matrix(0.416114,0,0,0.416105,193.26013,57.589164)"
     style="opacity:0.45964912">
    <g
       id="g6340"
       transform="matrix(0.958573,-0.284848,0.284848,0.958573,-441.782,17.5381)">
      <g
         id="g6342">
        <path
           id="path6344"
           style="fill:#000000;fill-opacity:0.49803922000000000;stroke:none"
           d="m 21,5 103,0 c 8.864,0 16,7.136 16,16 l 0,153 c 0,8.864 -7.136,16 -16,16 L 21,190 C 12.136,190 5,182.864 5,174 L 5,21 C 5,12.136 12.136,5 21,5 z"
           inkscape:connector-curvature="0" />
        <path
           id="path6346"
           style="fill:#ffffff;fill-opacity:1;stroke:none"
           d="m 17,1 103,0 c 8.864,0 16,7.136 16,16 l 0,153 c 0,8.864 -7.136,16 -16,16 L 17,186 C 8.136,186 1,178.864 1,170 L 1,17 C 1,8.136 8.136,1 17,1 z"
           inkscape:connector-curvature="0" />
        <path
           id="path6348"
           style="fill:#c7891f;fill-opacity:1;stroke:none"
           d="m 19,3 103,0 c 8.864,0 16,7.136 16,16 l 0,153 c 0,8.864 -7.136,16 -16,16 L 19,188 C 10.136,188 3,180.864 3,172 L 3,19 C 3,10.136 10.136,3 19,3 z"
           inkscape:connector-curvature="0" />
        <path
           id="path6350"
           style="fill:url(#linearGradient3903);fill-opacity:1;stroke:none"
           d="m 18,1.9999995 103,0 c 8.864,0 16,7.136 16,16.0000005 l 0,153 c 0,8.864 -7.136,16 -16,16 L 18,187 C 9.136,187 2,179.864 2,171 L 2,18 C 2,9.1359995 9.136,1.9999995 18,1.9999995 z"
           inkscape:connector-curvature="0" />
        <path
           id="rect2941"
           style="fill:#4f00a4;fill-opacity:1;stroke:none"
           d="m 53,31 c -9.400703,0 -17,7.599297 -17,17 l 0,93 c 0,9.4007 7.599297,17 17,17 l 33,0 c 9.400703,0 17,-7.5993 17,-17 l 0,-93 C 103,38.599297 95.400703,31 86,31 l -33,0 z m 0,2 33,0 c 8.327297,0 15,6.672703 15,15 l 0,93 c 0,8.3273 -6.672703,15 -15,15 l -33,0 c -8.327297,0 -15,-6.6727 -15,-15 l 0,-93 c 0,-8.327297 6.672703,-15 15,-15 z"
           inkscape:connector-curvature="0" />
      </g>
      <path
         id="text1481"
         style="font-size:37.41876601999999963px;font-style:normal;font-variant:normal;font-weight:bold;font-stretch:normal;writing-mode:lr-tb;text-anchor:start;fill:#000000;fill-opacity:1;stroke:none;font-family:Bitstream Vera Sans"
         d="m 25.078906,36.774534 -10.001257,0 -1.578272,5.465495 -6.4293794,0 9.1872014,-29.999941 7.625543,0 9.187201,29.999941 -6.429379,0 -1.561658,-5.465495 m -8.406372,-5.565963 6.794873,0 -3.389129,-11.935677 -3.405744,11.935677"
         inkscape:connector-curvature="0" />
      <path
         id="text4064"
         style="font-size:37.41876601999999963px;font-style:normal;font-variant:normal;font-weight:bold;font-stretch:normal;writing-mode:lr-tb;text-anchor:start;fill:#000000;fill-opacity:1;stroke:none;font-family:Bitstream Vera Sans"
         d="m 113.61105,152.09552 10.00126,0 1.57826,-5.4655 6.42939,0 -9.1872,29.99995 -7.62555,0 -9.1872,-29.99995 6.42938,0 1.56166,5.4655 m 8.40637,5.56596 -6.79487,0 3.38913,11.93568 3.40574,-11.93568"
         inkscape:connector-curvature="0" />
      <path
         id="path908"
         style="fill:#000000;fill-opacity:1;fill-rule:evenodd;stroke:none"
         d="m 20.527261,48.665 c -2.666384,0 -4.829867,3.263523 -4.829867,7.285664 0,3.426576 4.392096,9.191666 4.221525,11.929576 -1.410251,0.78242 -5.767259,-6.43752 -8.019053,-6.43752 -2.666384,0 -4.829866,3.26352 -4.829866,7.28566 0,4.02215 2.163482,7.28567 4.829866,7.28567 2.312528,0 6.275661,-7.21399 8.019053,-6.56266 0.03259,0.934 -0.05996,9.54217 -0.55085,10.16234 -1.061335,1.34083 -2.405716,1.25136 -2.405716,1.25136 l 0.02765,1.45991 7.023584,-0.04171 0.02765,-1.45992 c 3e-6,0 -1.335164,0.10339 -2.396498,-1.23744 C 21.1564,78.96896 20.936644,69.8021 20.932822,69.507 l 0.0553,0 0,0.01391 c 1.707303,-0.63971 5.805861,6.63217 8.102008,6.63218 2.666387,0 4.829869,-3.26352 4.829866,-7.28567 0,-4.02214 -2.163479,-7.28566 -4.829866,-7.28566 -2.242624,0 -6.307708,7.10053 -8.092791,6.368 0.02508,-2.80543 4.359784,-8.576287 4.359784,-11.999096 0,-4.022141 -2.16348,-7.285664 -4.829866,-7.285664 z"
         inkscape:connector-curvature="0" />
      <path
         id="path4052"
         style="fill:#000000;fill-opacity:1;fill-rule:evenodd;stroke:none"
         d="m 117.41824,139.9625 c 2.66638,0 4.82987,-3.26352 4.82987,-7.28566 0,-3.42658 -4.3921,-9.19167 -4.22153,-11.92958 1.41025,-0.78242 5.76726,6.43752 8.01905,6.43752 2.66639,0 4.82987,-3.26352 4.82987,-7.28566 0,-4.02215 -2.16348,-7.28567 -4.82987,-7.28567 -2.31252,0 -6.27566,7.21399 -8.01905,6.56266 -0.0326,-0.934 0.06,-9.54217 0.55085,-10.16234 1.06134,-1.34083 2.40572,-1.25136 2.40572,-1.25136 l -0.0276,-1.45991 -7.02359,0.0417 -0.0277,1.45992 c 0,0 1.33516,-0.10339 2.3965,1.23744 0.48834,0.61697 0.7081,9.78383 0.71192,10.07893 l -0.0553,0 0,-0.0139 c -1.7073,0.63971 -5.80586,-6.63217 -8.102,-6.63218 -2.66639,0 -4.82987,3.26352 -4.82987,7.28567 0,4.02214 2.16348,7.28566 4.82987,7.28566 2.24262,0 6.3077,-7.10053 8.09279,-6.368 -0.0251,2.80543 -4.35979,8.57629 -4.35979,11.9991 0,4.02214 2.16348,7.28566 4.82987,7.28566 z"
         inkscape:connector-curvature="0" />
      <path
         id="path4078"
         style="fill:#000000;fill-opacity:1;fill-rule:evenodd;stroke:none"
         d="m 69.52928,59.05 c -5.726022,0 -10.372072,7.012793 -10.372072,15.655728 0,7.363176 9.431965,19.75144 9.065666,25.634772 -3.028494,1.6813 -12.385108,-13.833207 -17.220804,-13.833207 -5.726023,0 -10.37207,7.012787 -10.37207,15.655727 0,8.64296 4.646047,15.65575 10.37207,15.65575 4.966121,0 13.476894,-15.50172 17.220804,-14.10212 0.06999,2.00702 -0.128767,20.50461 -1.182943,21.83726 -2.279202,2.88123 -5.166241,2.68898 -5.166241,2.68898 l 0.05938,3.13711 15.083049,-0.0896 0.05938,-3.13713 c 6e-6,0 -2.867246,0.22216 -5.146446,-2.65907 -1.04871,-1.32577 -1.520633,-21.0239 -1.52884,-21.65802 l 0.118764,0 0,0.0299 c 3.666409,-1.37463 12.468006,14.25148 17.398949,14.2515 5.726029,0 10.372076,-7.01278 10.37207,-15.65574 0,-8.642945 -4.646041,-15.655732 -10.37207,-15.655732 -4.816003,0 -13.545715,15.257912 -17.379155,13.683822 C 70.592627,94.461466 79.90135,82.060803 79.90135,74.705728 79.90135,66.062793 75.255307,59.05 69.52928,59.05 z"
         inkscape:connector-curvature="0" />
    </g>
    <g
       id="g6465"
       transform="matrix(0.993341,-0.115213,0.115213,0.993341,-393.033,-6.74153)">
      <g
         id="g6467">
        <path
           id="path6469"
           style="fill:#000000;fill-opacity:0.49803922000000000;stroke:none"
           d="m 21,5 103,0 c 8.864,0 16,7.136 16,16 l 0,153 c 0,8.864 -7.136,16 -16,16 L 21,190 C 12.136,190 5,182.864 5,174 L 5,21 C 5,12.136 12.136,5 21,5 z"
           inkscape:connector-curvature="0" />
        <path
           id="path6471"
           style="fill:#ffffff;fill-opacity:1;stroke:none"
           d="m 17,1 103,0 c 8.864,0 16,7.136 16,16 l 0,153 c 0,8.864 -7.136,16 -16,16 L 17,186 C 8.136,186 1,178.864 1,170 L 1,17 C 1,8.136 8.136,1 17,1 z"
           inkscape:connector-curvature="0" />
        <path
           id="path6473"
           style="fill:#c7891f;fill-opacity:1;stroke:none"
           d="m 19,3 103,0 c 8.864,0 16,7.136 16,16 l 0,153 c 0,8.864 -7.136,16 -16,16 L 19,188 C 10.136,188 3,180.864 3,172 L 3,19 C 3,10.136 10.136,3 19,3 z"
           inkscape:connector-curvature="0" />
        <path
           id="path6475"
           style="fill:url(#linearGradient3905);fill-opacity:1;stroke:none"
           d="m 18,1.9999995 103,0 c 8.864,0 16,7.136 16,16.0000005 l 0,153 c 0,8.864 -7.136,16 -16,16 L 18,187 C 9.136,187 2,179.864 2,171 L 2,18 C 2,9.1359995 9.136,1.9999995 18,1.9999995 z"
           inkscape:connector-curvature="0" />
        <path
           id="path6477"
           style="fill:#4f00a4;fill-opacity:1;stroke:none"
           d="m 53,31 c -9.400703,0 -17,7.599297 -17,17 l 0,93 c 0,9.4007 7.599297,17 17,17 l 33,0 c 9.400703,0 17,-7.5993 17,-17 l 0,-93 C 103,38.599297 95.400703,31 86,31 l -33,0 z m 0,2 33,0 c 8.327297,0 15,6.672703 15,15 l 0,93 c 0,8.3273 -6.672703,15 -15,15 l -33,0 c -8.327297,0 -15,-6.6727 -15,-15 l 0,-93 c 0,-8.327297 6.672703,-15 15,-15 z"
           inkscape:connector-curvature="0" />
      </g>
      <path
         id="path6479"
         style="font-size:37.41876601999999963px;font-style:normal;font-variant:normal;font-weight:bold;font-stretch:normal;writing-mode:lr-tb;text-anchor:start;fill:#ff0000;fill-opacity:1;stroke:none;font-family:Bitstream Vera Sans"
         d="m 25.078906,36.774534 -10.001257,0 -1.578272,5.465495 -6.4293794,0 9.1872014,-29.999941 7.625543,0 9.187201,29.999941 -6.429379,0 -1.561658,-5.465495 m -8.406372,-5.565963 6.794873,0 -3.389129,-11.935677 -3.405744,11.935677"
         inkscape:connector-curvature="0" />
      <path
         id="text3802"
         style="font-size:37.41876601999999963px;font-style:normal;font-variant:normal;font-weight:bold;font-stretch:normal;writing-mode:lr-tb;text-anchor:start;fill:#ff0000;fill-opacity:1;stroke:none;font-family:Bitstream Vera Sans"
         d="m 113.61105,152.09552 10.00126,0 1.57826,-5.4655 6.42939,0 -9.1872,29.99995 -7.62555,0 -9.1872,-29.99995 6.42938,0 1.56166,5.4655 m 8.40637,5.56596 -6.79487,0 3.38913,11.93568 3.40574,-11.93568"
         inkscape:connector-curvature="0" />
      <path
         id="path1608"
         style="fill:#ff0000;fill-opacity:1;fill-rule:evenodd;stroke:none"
         d="M 20.40955,48.665 C 16.28371,56.91048 13.27531,61.16305 7.07,65.70456 12.94239,70.19157 17.0827,74.82903 20.53018,82.325 23.60943,75.20378 27.37659,69.89505 33.92,65.4819 27.33802,62.13299 23.52737,56.82825 20.40955,48.665 z"
         inkscape:connector-curvature="0" />
      <path
         id="path1518"
         style="fill:#ff0000;fill-opacity:1;fill-rule:evenodd;stroke:none"
         d="m 118.33956,106.34 c -4.12585,8.24548 -7.13425,12.49805 -13.33956,17.03956 5.87239,4.48701 10.01271,9.12447 13.46019,16.62044 3.07925,-7.12122 6.8464,-12.42995 13.38981,-16.8431 -6.58197,-3.34891 -10.39262,-8.65365 -13.51044,-16.8169 z"
         inkscape:connector-curvature="0" />
      <path
         id="path3794"
         style="fill:#ff0000;fill-opacity:1;fill-rule:evenodd;stroke:none"
         d="M 69.276497,59.05 C 60.416314,76.768228 53.955817,85.906327 40.63,95.665311 53.240876,105.30718 62.132133,115.27235 69.535549,131.38 76.148195,116.07763 84.238118,104.67001 98.29,95.18685 84.15529,87.990574 75.971972,76.591529 69.276497,59.05 z"
         inkscape:connector-curvature="0" />
    </g>
    <g
       id="g6575"
       transform="matrix(0.993098,0.117279,-0.117279,0.993098,-338.813,-21.1091)">
      <g
         id="g6577">
        <path
           id="path6579"
           style="fill:#000000;fill-opacity:0.49803922000000000;stroke:none"
           d="m 21,5 103,0 c 8.864,0 16,7.136 16,16 l 0,153 c 0,8.864 -7.136,16 -16,16 L 21,190 C 12.136,190 5,182.864 5,174 L 5,21 C 5,12.136 12.136,5 21,5 z"
           inkscape:connector-curvature="0" />
        <path
           id="path6581"
           style="fill:#ffffff;fill-opacity:1;stroke:none"
           d="m 17,1 103,0 c 8.864,0 16,7.136 16,16 l 0,153 c 0,8.864 -7.136,16 -16,16 L 17,186 C 8.136,186 1,178.864 1,170 L 1,17 C 1,8.136 8.136,1 17,1 z"
           inkscape:connector-curvature="0" />
        <path
           id="path6583"
           style="fill:#c7891f;fill-opacity:1;stroke:none"
           d="m 19,3 103,0 c 8.864,0 16,7.136 16,16 l 0,153 c 0,8.864 -7.136,16 -16,16 L 19,188 C 10.136,188 3,180.864 3,172 L 3,19 C 3,10.136 10.136,3 19,3 z"
           inkscape:connector-curvature="0" />
        <path
           id="path6585"
           style="fill:url(#linearGradient3907);fill-opacity:1;stroke:none"
           d="m 18,1.9999995 103,0 c 8.864,0 16,7.136 16,16.0000005 l 0,153 c 0,8.864 -7.136,16 -16,16 L 18,187 C 9.136,187 2,179.864 2,171 L 2,18 C 2,9.1359995 9.136,1.9999995 18,1.9999995 z"
           inkscape:connector-curvature="0" />
        <path
           id="path6587"
           style="fill:#4f00a4;fill-opacity:1;stroke:none"
           d="m 53,31 c -9.400703,0 -17,7.599297 -17,17 l 0,93 c 0,9.4007 7.599297,17 17,17 l 33,0 c 9.400703,0 17,-7.5993 17,-17 l 0,-93 C 103,38.599297 95.400703,31 86,31 l -33,0 z m 0,2 33,0 c 8.327297,0 15,6.672703 15,15 l 0,93 c 0,8.3273 -6.672703,15 -15,15 l -33,0 c -8.327297,0 -15,-6.6727 -15,-15 l 0,-93 c 0,-8.327297 6.672703,-15 15,-15 z"
           inkscape:connector-curvature="0" />
      </g>
      <path
         id="text2070"
         style="font-size:37.41878127999999748px;font-style:normal;font-variant:normal;font-weight:bold;font-stretch:normal;writing-mode:lr-tb;text-anchor:start;fill:#ff0000;fill-opacity:1;stroke:none;font-family:Bitstream Vera Sans"
         d="m 25.448816,36.534318 -10.001261,0 -1.578272,5.465497 -6.4293826,0 9.1872046,-29.999953 7.625547,0 9.187205,29.999953 -6.429382,0 -1.561659,-5.465497 m -8.406375,-5.565965 6.794876,0 -3.389132,-11.935682 -3.405744,11.935682"
         inkscape:connector-curvature="0" />
      <g
         id="g1605"
         style="fill:#ff0000;fill-opacity:1"
         transform="matrix(0.286388,0,0,0.388772,-29.0339,-9.47241)">
        <path
           id="path1585"
           style="fill-rule:evenodd;stroke:none"
           transform="matrix(1.10538,0,0,1.07964,-12.0141,-18.8673)"
           d="m 147.20601,156.41679 c -2.53566,0.0128 -5.3218,0.48209 -8.40625,1.53125 -33.62326,19.53688 11.70483,51.04132 30.84375,78.09375 l 0.55251,0.13831 c 21.03298,-29.56912 61.07199,-62.10764 30.47874,-78.23206 -24.23677,-8.24403 -30.71132,19.19807 -30.9375,20.1875 -0.19739,-0.86352 -5.14241,-21.80618 -22.53125,-21.71875 z"
           inkscape:connector-curvature="0" />
      </g>
      <path
         id="text15628"
         style="font-size:37.41878127999999748px;font-style:normal;font-variant:normal;font-weight:bold;font-stretch:normal;writing-mode:lr-tb;text-anchor:start;fill:#ff0000;fill-opacity:1;stroke:none;font-family:Bitstream Vera Sans"
         d="m 113.57164,152.46561 10.00126,0 1.57827,-5.46549 6.42938,0 -9.1872,29.99995 -7.62555,0 -9.1872,-29.99995 6.42938,0 1.56166,5.46549 m 8.40638,5.56597 -6.79489,0 3.38913,11.93567 3.40576,-11.93567"
         inkscape:connector-curvature="0" />
      <g
         id="g15632"
         style="fill:#ff0000;fill-opacity:1"
         transform="matrix(-0.286429,0,0,-0.388772,168.06,198.314)">
        <path
           id="path15634"
           style="fill-rule:evenodd;stroke:none"
           transform="matrix(1.10538,0,0,1.07964,-12.0141,-18.8673)"
           d="m 147.20601,156.41679 c -2.53566,0.0128 -5.3218,0.48209 -8.40625,1.53125 -33.62326,19.53688 11.70483,51.04132 30.84375,78.09375 l 0.55251,0.13831 c 21.03298,-29.56912 61.07199,-62.10764 30.47874,-78.23206 -24.23677,-8.24403 -30.71132,19.19807 -30.9375,20.1875 -0.19739,-0.86352 -5.14241,-21.80618 -22.53125,-21.71875 z"
           inkscape:connector-curvature="0" />
      </g>
      <g
         id="g1318"
         style="fill:#ff0000;fill-opacity:1"
         transform="matrix(0.613301,0,0,0.839802,-37.9192,-66.9153)">
        <path
           id="path1320"
           style="fill-rule:evenodd;stroke:none"
           transform="matrix(1.10538,0,0,1.07964,-12.0141,-18.8673)"
           d="m 147.20601,156.41679 c -2.53566,0.0128 -5.3218,0.48209 -8.40625,1.53125 -33.62326,19.53688 11.70483,51.04132 30.84375,78.09375 l 0.55251,0.13831 c 21.03298,-29.56912 61.07199,-62.10764 30.47874,-78.23206 -24.23677,-8.24403 -30.71132,19.19807 -30.9375,20.1875 -0.19739,-0.86352 -5.14241,-21.80618 -22.53125,-21.71875 z"
           inkscape:connector-curvature="0" />
      </g>
    </g>
    <g
       id="g6707"
       transform="matrix(0.913281,0.407329,-0.407329,0.913281,-276.487,-25.9351)">
      <g
         id="g6709">
        <path
           id="path6711"
           style="fill:#000000;fill-opacity:0.49803922000000000;stroke:none"
           d="m 21,5 103,0 c 8.864,0 16,7.136 16,16 l 0,153 c 0,8.864 -7.136,16 -16,16 L 21,190 C 12.136,190 5,182.864 5,174 L 5,21 C 5,12.136 12.136,5 21,5 z"
           inkscape:connector-curvature="0" />
        <path
           id="path6713"
           style="fill:#ffffff;fill-opacity:1;stroke:none"
           d="m 17,1 103,0 c 8.864,0 16,7.136 16,16 l 0,153 c 0,8.864 -7.136,16 -16,16 L 17,186 C 8.136,186 1,178.864 1,170 L 1,17 C 1,8.136 8.136,1 17,1 z"
           inkscape:connector-curvature="0" />
        <path
           id="path6715"
           style="fill:#c7891f;fill-opacity:1;stroke:none"
           d="m 19,3 103,0 c 8.864,0 16,7.136 16,16 l 0,153 c 0,8.864 -7.136,16 -16,16 L 19,188 C 10.136,188 3,180.864 3,172 L 3,19 C 3,10.136 10.136,3 19,3 z"
           inkscape:connector-curvature="0" />
        <path
           id="path6717"
           style="fill:url(#linearGradient3909);fill-opacity:1;stroke:none"
           d="m 18,1.9999995 103,0 c 8.864,0 16,7.136 16,16.0000005 l 0,153 c 0,8.864 -7.136,16 -16,16 L 18,187 C 9.136,187 2,179.864 2,171 L 2,18 C 2,9.1359995 9.136,1.9999995 18,1.9999995 z"
           inkscape:connector-curvature="0" />
        <path
           id="path6719"
           style="fill:#4f00a4;fill-opacity:1;stroke:none"
           d="m 53,31 c -9.400703,0 -17,7.599297 -17,17 l 0,93 c 0,9.4007 7.599297,17 17,17 l 33,0 c 9.400703,0 17,-7.5993 17,-17 l 0,-93 C 103,38.599297 95.400703,31 86,31 l -33,0 z m 0,2 33,0 c 8.327297,0 15,6.672703 15,15 l 0,93 c 0,8.3273 -6.672703,15 -15,15 l -33,0 c -8.327297,0 -15,-6.6727 -15,-15 l 0,-93 c 0,-8.327297 6.672703,-15 15,-15 z"
           inkscape:connector-curvature="0" />
      </g>
      <g
         id="g1600"
         transform="matrix(1.00001,0,0,0.400814,-239.327,-10.8115)">
        <path
           id="path1561"
           style="fill:#000000;fill-opacity:1;fill-rule:evenodd;stroke:none"
           d="m 260.41906,148.38922 c -4.92427,19.52193 -20.03444,52.76542 -10.46219,63.02905 5.81047,4.72474 8.57559,-4.94703 9.74673,-11.3503 l 0.23458,0 c -0.009,1.20404 -0.21719,24.75602 -0.83276,26.14963 -1.35053,3.05745 -3.06125,2.82171 -3.06125,2.82171 l 0.0352,3.32901 8.93744,-0.0951 0.0352,-3.2973 c 0,0 -1.69899,0.20404 -3.04952,-2.85342 -0.61566,-1.3938 -0.83573,-24.89824 -0.84449,-26.08621 l 0.0938,0 c 0.94594,5.23231 4.53538,16.06397 8.48389,11.93888 11.54573,-11.56366 -5.45564,-44.46919 -9.31664,-63.58593 z"
           inkscape:connector-curvature="0" />
      </g>
      <path
         id="path6723"
         style="font-size:37.41876601999999963px;font-style:normal;font-variant:normal;font-weight:bold;font-stretch:normal;writing-mode:lr-tb;text-anchor:start;fill:#000000;fill-opacity:1;stroke:none;font-family:Bitstream Vera Sans"
         d="m 25.078906,36.774534 -10.001257,0 -1.578272,5.465495 -6.4293794,0 9.1872014,-29.999941 7.625543,0 9.187201,29.999941 -6.429379,0 -1.561658,-5.465495 m -8.406372,-5.565963 6.794873,0 -3.389129,-11.935677 -3.405744,11.935677"
         inkscape:connector-curvature="0" />
      <g
         id="g19507"
         transform="matrix(-1.00001,0,0,-0.400814,378.017,199.477)">
        <path
           id="path19509"
           style="fill:#000000;fill-opacity:1;fill-rule:evenodd;stroke:none"
           d="m 260.41906,148.38922 c -4.92427,19.52193 -20.03444,52.76542 -10.46219,63.02905 5.81047,4.72474 8.57559,-4.94703 9.74673,-11.3503 l 0.23458,0 c -0.009,1.20404 -0.21719,24.75602 -0.83276,26.14963 -1.35053,3.05745 -3.06125,2.82171 -3.06125,2.82171 l 0.0352,3.32901 8.93744,-0.0951 0.0352,-3.2973 c 0,0 -1.69899,0.20404 -3.04952,-2.85342 -0.61566,-1.3938 -0.83573,-24.89824 -0.84449,-26.08621 l 0.0938,0 c 0.94594,5.23231 4.53538,16.06397 8.48389,11.93888 11.54573,-11.56366 -5.45564,-44.46919 -9.31664,-63.58593 z"
           inkscape:connector-curvature="0" />
      </g>
      <path
         id="text19511"
         style="font-size:37.41876601999999963px;font-style:normal;font-variant:normal;font-weight:bold;font-stretch:normal;writing-mode:lr-tb;text-anchor:start;fill:#000000;fill-opacity:1;stroke:none;font-family:Bitstream Vera Sans"
         d="m 113.61105,152.09552 10.00126,0 1.57826,-5.4655 6.42939,0 -9.1872,29.99995 -7.62555,0 -9.1872,-29.99995 6.42938,0 1.56166,5.4655 m 8.40637,5.56596 -6.79487,0 3.38913,11.93568 3.40574,-11.93568"
         inkscape:connector-curvature="0" />
      <g
         id="g4161"
         transform="matrix(2.14751,0,0,0.861286,-489.471,-68.7556)">
        <path
           id="path4163"
           style="fill:#000000;fill-opacity:1;fill-rule:evenodd;stroke:none"
           d="m 260.41906,148.38922 c -4.92427,19.52193 -20.03444,52.76542 -10.46219,63.02905 5.81047,4.72474 8.57559,-4.94703 9.74673,-11.3503 l 0.23458,0 c -0.009,1.20404 -0.21719,24.75602 -0.83276,26.14963 -1.35053,3.05745 -3.06125,2.82171 -3.06125,2.82171 l 0.0352,3.32901 8.93744,-0.0951 0.0352,-3.2973 c 0,0 -1.69899,0.20404 -3.04952,-2.85342 -0.61566,-1.3938 -0.83573,-24.89824 -0.84449,-26.08621 l 0.0938,0 c 0.94594,5.23231 4.53538,16.06397 8.48389,11.93888 11.54573,-11.56366 -5.45564,-44.46919 -9.31664,-63.58593 z"
           inkscape:connector-curvature="0" />
      </g>
    </g>
  </g>
  <metadata
     id="metadata80">
    <rdf:RDF>
      <cc:Work
         rdf:about="">
        <dc:title>card</dc:title>
        <dc:description />
        <dc:subject>
          <rdf:Bag>
            <rdf:li>card</rdf:li>
            <rdf:li>back</rdf:li>
          </rdf:Bag>
        </dc:subject>
        <dc:publisher>
          <cc:Agent>
            <dc:title />
          </cc:Agent>
        </dc:publisher>
        <dc:creator>
          <cc:Agent>
            <dc:title>Nicu Buculei</dc:title>
          </cc:Agent>
        </dc:creator>
        <dc:rights>
          <cc:Agent>
            <dc:title>Nicu Buculei</dc:title>
          </cc:Agent>
        </dc:rights>
        <dc:date />
        <dc:format>image/svg+xml</dc:format>
        <dc:type
           rdf:resource="http://purl.org/dc/dcmitype/StillImage" />
        <cc:license
           rdf:resource="http://web.resource.org/cc/PublicDomain" />
        <dc:language>en</dc:language>
      </cc:Work>
      <cc:License
         rdf:about="http://web.resource.org/cc/PublicDomain">
        <cc:permits
           rdf:resource="http://web.resource.org/cc/Reproduction" />
        <cc:permits
           rdf:resource="http://web.resource.org/cc/Distribution" />
        <cc:permits
           rdf:resource="http://web.resource.org/cc/DerivativeWorks" />
      </cc:License>
    </rdf:RDF>
  </metadata>
</svg>
