<?xml version="1.0" encoding="UTF-8" standalone="no"?>
<!-- Created with Inkscape (http://www.inkscape.org/) -->

<svg
   xmlns:dc="http://purl.org/dc/elements/1.1/"
   xmlns:cc="http://creativecommons.org/ns#"
   xmlns:rdf="http://www.w3.org/1999/02/22-rdf-syntax-ns#"
   xmlns:svg="http://www.w3.org/2000/svg"
   xmlns="http://www.w3.org/2000/svg"
   xmlns:xlink="http://www.w3.org/1999/xlink"
   xmlns:sodipodi="http://sodipodi.sourceforge.net/DTD/sodipodi-0.dtd"
   xmlns:inkscape="http://www.inkscape.org/namespaces/inkscape"
   id="svg2"
   height="190.00000"
   width="140.00000"
   y="0.0000000"
   x="0.0000000"
   version="1.0"
   sodipodi:version="0.32"
   inkscape:version="0.48.0 r9654"
   sodipodi:docname="nicubunu_Ornamental_deck_9_of_hearts.svg">
  <sodipodi:namedview
     id="base"
     pagecolor="#ffffff"
     bordercolor="#666666"
     borderopacity="1.0"
     inkscape:pageopacity="0.0"
     inkscape:pageshadow="2"
     inkscape:window-width="1152"
     inkscape:window-height="791"
     inkscape:zoom="1.9105263"
     inkscape:cx="70.000003"
     inkscape:cy="95.000001"
     inkscape:window-x="0"
     inkscape:window-y="26"
     inkscape:current-layer="layer1"
     showgrid="false"
     inkscape:window-maximized="0" />
  <defs
     id="defs3">
    <linearGradient
       id="linearGradient2060">
      <stop
         id="stop2062"
         offset="0.0000000"
         style="stop-color:#ebf0d0;stop-opacity:1.0000000;" />
      <stop
         id="stop2064"
         offset="1.0000000"
         style="stop-color:#ffffeb;stop-opacity:1.0000000;" />
    </linearGradient>
    <linearGradient
       gradientTransform="translate(0, -1)"
       gradientUnits="userSpaceOnUse"
       xlink:href="#linearGradient2060"
       id="linearGradient4853"
       y2="128.69501"
       x2="109.00000"
       y1="63.099518"
       x1="2.0000000" />
    <linearGradient
       y2="128.69501"
       x2="109.00000"
       y1="63.099518"
       x1="2.0000000"
       gradientTransform="translate(0,-1)"
       gradientUnits="userSpaceOnUse"
       id="linearGradient24741"
       xlink:href="#linearGradient2060"
       inkscape:collect="always" />
  </defs>
  <g
     inkscape:label="Layer 1"
     inkscape:groupmode="layer"
     id="layer1">
    <g
       id="g24737"
       transform="translate(152.037, 99.5671)">
      <g
         id="g24739"
         transform="translate(351.5, 184.5)" />
    </g>
  </g>
  <path
     id="text1386"
     style="font-size:37.418461;font-style:normal;font-variant:normal;font-weight:bold;font-stretch:normal;fill:#ff0000;fill-opacity:1.0000000;stroke:none;stroke-width:1.0000000px;stroke-linecap:butt;stroke-linejoin:miter;stroke-opacity:1.0000000;font-family:Bitstream Vera Sans;text-anchor:start;writing-mode:lr-tb"
     d="M 12.404260,41.334714 L 12.404260,35.788889 C 13.423202,36.364911 14.397845,36.800271 15.328192,37.094971 C 16.258527,37.376285 17.177792,37.516940 18.085991,37.516936 C 19.990966,37.516940 21.475081,36.880645 22.538342,35.608047 C 23.601575,34.322067 24.227340,32.419877 24.415639,29.901474 C 23.662490,30.571271 22.859518,31.073609 22.006718,31.408492 C 21.153892,31.743395 20.229089,31.910841 19.232305,31.910831 C 16.696009,31.910841 14.647043,31.020027 13.085404,29.238386 C 11.534831,27.443375 10.759547,25.085732 10.759548,22.165451 C 10.759547,18.937108 11.623435,16.351738 13.351215,14.409334 C 15.090062,12.466985 17.415915,11.495797 20.328779,11.495766 C 23.562811,11.495797 26.065872,12.815273 27.837968,15.454199 C 29.610027,18.093179 30.496066,21.823880 30.496088,26.646316 C 30.496066,31.602740 29.460509,35.500888 27.389411,38.340772 C 25.318275,41.167268 22.477413,42.580515 18.866814,42.580515 C 17.703878,42.580515 16.590791,42.473349 15.527550,42.259018 C 14.464298,42.058082 13.423202,41.749981 12.404260,41.334714 M 20.295553,26.887439 C 21.414166,26.887454 22.255904,26.452094 22.820767,25.581357 C 23.385603,24.697258 23.668028,23.377782 23.668043,21.622925 C 23.668028,19.881504 23.385603,18.568726 22.820767,17.684585 C 22.255904,16.800494 21.414166,16.358435 20.295553,16.358410 C 19.176917,16.358435 18.335181,16.800494 17.770339,17.684585 C 17.205480,18.568726 16.923056,19.881504 16.923064,21.622925 C 16.923056,23.377782 17.205480,24.697258 17.770339,25.581357 C 18.335181,26.452094 19.176917,26.887454 20.295553,26.887439" />
  <g
     id="g1390"
     style="fill:#ff0000;fill-opacity:1.0000000"
     transform="matrix(0.286388, 0, 0, 0.388772, -29.6083, -9.47241)">
    <path
       id="path1392"
       style="fill-rule:evenodd;stroke:none;stroke-width:3.4289415;stroke-linecap:butt;stroke-linejoin:round;stroke-miterlimit:4.0000000;stroke-opacity:1.0000000"
       transform="matrix(1.10538, 0, 0, 1.07964, -12.0141, -18.8673)"
       d="M 147.20601,156.41679 C 144.67035,156.42954 141.88421,156.89888 138.79976,157.94804 C 105.17650,177.48492 150.50459,208.98936 169.64351,236.04179 L 170.19602,236.18010 C 191.22900,206.61098 231.26801,174.07246 200.67476,157.94804 C 176.43799,149.70401 169.96344,177.14611 169.73726,178.13554 C 169.53987,177.27202 164.59485,156.32936 147.20601,156.41679 z " />
  </g>
  <path
     id="text15424"
     style="font-size:37.418461;font-style:normal;font-variant:normal;font-weight:bold;font-stretch:normal;fill:#ff0000;fill-opacity:1.0000000;stroke:none;stroke-width:1.0000000px;stroke-linecap:butt;stroke-linejoin:miter;stroke-opacity:1.0000000;font-family:Bitstream Vera Sans;text-anchor:start;writing-mode:lr-tb"
     d="M 126.46119,147.66521 L 126.46119,153.21104 C 125.44225,152.63502 124.46761,152.19965 123.53726,151.90496 C 122.60693,151.62364 121.68766,151.48299 120.77946,151.48299 C 118.87449,151.48299 117.39037,152.11928 116.32711,153.39188 C 115.26388,154.67786 114.63811,156.58005 114.44982,159.09845 C 115.20297,158.42865 116.00593,157.92632 116.85873,157.59143 C 117.71157,157.25653 118.63636,157.08909 119.63315,157.08910 C 122.16945,157.08909 124.21841,157.97990 125.78005,159.76154 C 127.33062,161.55656 128.10590,163.91420 128.10590,166.83448 C 128.10590,170.06282 127.24201,172.64819 125.51424,174.59059 C 123.77539,176.53294 121.44954,177.50413 118.53667,177.50416 C 115.30264,177.50413 112.79958,176.18466 111.02749,173.54573 C 109.25542,170.90675 108.36938,167.17605 108.36937,162.35361 C 108.36938,157.39719 109.40495,153.49904 111.47605,150.65915 C 113.54718,147.83266 116.38804,146.41942 119.99864,146.41942 C 121.16157,146.41942 122.27466,146.52658 123.33790,146.74091 C 124.40115,146.94185 125.44225,147.24995 126.46119,147.66521 M 118.56990,162.11249 C 117.45128,162.11248 116.60955,162.54783 116.04469,163.41857 C 115.47985,164.30267 115.19743,165.62215 115.19741,167.37700 C 115.19743,169.11843 115.47985,170.43120 116.04469,171.31535 C 116.60955,172.19943 117.45128,172.64149 118.56990,172.64151 C 119.68854,172.64149 120.53028,172.19943 121.09511,171.31535 C 121.65997,170.43120 121.94240,169.11843 121.94239,167.37700 C 121.94240,165.62215 121.65997,164.30267 121.09511,163.41857 C 120.53028,162.54783 119.68854,162.11248 118.56990,162.11249" />
  <g
     id="g15428"
     style="fill:#ff0000;fill-opacity:1.0000000"
     transform="matrix(-0.286388, 0, 0, -0.388772, 168.47, 198.314)">
    <path
       id="path15430"
       style="fill-rule:evenodd;stroke:none;stroke-width:3.4289415;stroke-linecap:butt;stroke-linejoin:round;stroke-miterlimit:4.0000000;stroke-opacity:1.0000000"
       transform="matrix(1.10538, 0, 0, 1.07964, -12.0141, -18.8673)"
       d="M 147.20601,156.41679 C 144.67035,156.42954 141.88421,156.89888 138.79976,157.94804 C 105.17650,177.48492 150.50459,208.98936 169.64351,236.04179 L 170.19602,236.18010 C 191.22900,206.61098 231.26801,174.07246 200.67476,157.94804 C 176.43799,149.70401 169.96344,177.14611 169.73726,178.13554 C 169.53987,177.27202 164.59485,156.32936 147.20601,156.41679 z " />
  </g>
  <g
     id="g6860"
     transform="translate(352.5, 189.5)">
    <g
       id="g6908"
       style="fill:#ff0000;fill-opacity:1.0000000"
       transform="matrix(0.166355, 0, 0, 0.22966, -313.446, -138.728)">
      <path
         id="path6910"
         style="fill-rule:evenodd;stroke:none;stroke-width:3.4289415;stroke-linecap:butt;stroke-linejoin:round;stroke-miterlimit:4.0000000;stroke-opacity:1.0000000"
         transform="matrix(1.10538, 0, 0, 1.07964, -12.0141, -18.8673)"
         d="M 147.20601,156.41679 C 144.67035,156.42954 141.88421,156.89888 138.79976,157.94804 C 105.17650,177.48492 150.50459,208.98936 169.64351,236.04179 L 170.19602,236.18010 C 191.22900,206.61098 231.26801,174.07246 200.67476,157.94804 C 176.43799,149.70401 169.96344,177.14611 169.73726,178.13554 C 169.53987,177.27202 164.59485,156.32936 147.20601,156.41679 z " />
    </g>
    <g
       id="g5202">
      <g
         id="g5581"
         transform="translate(351.5, 184.5)" />
    </g>
    <g
       id="g6888"
       style="fill:#ff0000;fill-opacity:1.0000000"
       transform="matrix(0.166355, 0, 0, 0.22966, -333.446, -183.728)">
      <path
         id="path6890"
         style="fill-rule:evenodd;stroke:none;stroke-width:3.4289415;stroke-linecap:butt;stroke-linejoin:round;stroke-miterlimit:4.0000000;stroke-opacity:1.0000000"
         transform="matrix(1.10538, 0, 0, 1.07964, -12.0141, -18.8673)"
         d="M 147.20601,156.41679 C 144.67035,156.42954 141.88421,156.89888 138.79976,157.94804 C 105.17650,177.48492 150.50459,208.98936 169.64351,236.04179 L 170.19602,236.18010 C 191.22900,206.61098 231.26801,174.07246 200.67476,157.94804 C 176.43799,149.70401 169.96344,177.14611 169.73726,178.13554 C 169.53987,177.27202 164.59485,156.32936 147.20601,156.41679 z " />
    </g>
    <g
       id="g5250"
       style="fill:#ff0000;fill-opacity:1.0000000"
       transform="matrix(0.166355, 0, 0, 0.22966, -294.446, -183.948)">
      <path
         id="path5252"
         style="fill-rule:evenodd;stroke:none;stroke-width:3.4289415;stroke-linecap:butt;stroke-linejoin:round;stroke-miterlimit:4.0000000;stroke-opacity:1.0000000"
         transform="matrix(1.10538, 0, 0, 1.07964, -12.0141, -18.8673)"
         d="M 147.20601,156.41679 C 144.67035,156.42954 141.88421,156.89888 138.79976,157.94804 C 105.17650,177.48492 150.50459,208.98936 169.64351,236.04179 L 170.19602,236.18010 C 191.22900,206.61098 231.26801,174.07246 200.67476,157.94804 C 176.43799,149.70401 169.96344,177.14611 169.73726,178.13554 C 169.53987,177.27202 164.59485,156.32936 147.20601,156.41679 z " />
    </g>
    <g
       id="g5254"
       style="fill:#ff0000;fill-opacity:1.0000000"
       transform="matrix(0.166355, 0, 0, 0.22966, -332.806, -152.728)">
      <path
         id="path5256"
         style="fill-rule:evenodd;stroke:none;stroke-width:3.4289415;stroke-linecap:butt;stroke-linejoin:round;stroke-miterlimit:4.0000000;stroke-opacity:1.0000000"
         transform="matrix(1.10538, 0, 0, 1.07964, -12.0141, -18.8673)"
         d="M 147.20601,156.41679 C 144.67035,156.42954 141.88421,156.89888 138.79976,157.94804 C 105.17650,177.48492 150.50459,208.98936 169.64351,236.04179 L 170.19602,236.18010 C 191.22900,206.61098 231.26801,174.07246 200.67476,157.94804 C 176.43799,149.70401 169.96344,177.14611 169.73726,178.13554 C 169.53987,177.27202 164.59485,156.32936 147.20601,156.41679 z " />
    </g>
    <g
       id="g5258"
       style="fill:#ff0000;fill-opacity:1.0000000"
       transform="matrix(0.166355, 0, 0, 0.22966, -293.446, -153.728)">
      <path
         id="path5260"
         style="fill-rule:evenodd;stroke:none;stroke-width:3.4289415;stroke-linecap:butt;stroke-linejoin:round;stroke-miterlimit:4.0000000;stroke-opacity:1.0000000"
         transform="matrix(1.10538, 0, 0, 1.07964, -12.0141, -18.8673)"
         d="M 147.20601,156.41679 C 144.67035,156.42954 141.88421,156.89888 138.79976,157.94804 C 105.17650,177.48492 150.50459,208.98936 169.64351,236.04179 L 170.19602,236.18010 C 191.22900,206.61098 231.26801,174.07246 200.67476,157.94804 C 176.43799,149.70401 169.96344,177.14611 169.73726,178.13554 C 169.53987,177.27202 164.59485,156.32936 147.20601,156.41679 z " />
    </g>
    <g
       id="g5262"
       style="fill:#ff0000;fill-opacity:1.0000000"
       transform="matrix(-0.166355, 0, 0, -0.22966, -274.194, -35.2723)">
      <path
         id="path5264"
         style="fill-rule:evenodd;stroke:none;stroke-width:3.4289415;stroke-linecap:butt;stroke-linejoin:round;stroke-miterlimit:4.0000000;stroke-opacity:1.0000000"
         transform="matrix(1.10538, 0, 0, 1.07964, -12.0141, -18.8673)"
         d="M 147.20601,156.41679 C 144.67035,156.42954 141.88421,156.89888 138.79976,157.94804 C 105.17650,177.48492 150.50459,208.98936 169.64351,236.04179 L 170.19602,236.18010 C 191.22900,206.61098 231.26801,174.07246 200.67476,157.94804 C 176.43799,149.70401 169.96344,177.14611 169.73726,178.13554 C 169.53987,177.27202 164.59485,156.32936 147.20601,156.41679 z " />
    </g>
    <g
       id="g5266"
       style="fill:#ff0000;fill-opacity:1.0000000"
       transform="matrix(-0.166355, 0, 0, -0.22966, -273.554, -8.2723)">
      <path
         id="path5268"
         style="fill-rule:evenodd;stroke:none;stroke-width:3.4289415;stroke-linecap:butt;stroke-linejoin:round;stroke-miterlimit:4.0000000;stroke-opacity:1.0000000"
         transform="matrix(1.10538, 0, 0, 1.07964, -12.0141, -18.8673)"
         d="M 147.20601,156.41679 C 144.67035,156.42954 141.88421,156.89888 138.79976,157.94804 C 105.17650,177.48492 150.50459,208.98936 169.64351,236.04179 L 170.19602,236.18010 C 191.22900,206.61098 231.26801,174.07246 200.67476,157.94804 C 176.43799,149.70401 169.96344,177.14611 169.73726,178.13554 C 169.53987,177.27202 164.59485,156.32936 147.20601,156.41679 z " />
    </g>
    <g
       id="g5270"
       style="fill:#ff0000;fill-opacity:1.0000000"
       transform="matrix(-0.166355, 0, 0, -0.22966, -236.194, -8.2723)">
      <path
         id="path5272"
         style="fill-rule:evenodd;stroke:none;stroke-width:3.4289415;stroke-linecap:butt;stroke-linejoin:round;stroke-miterlimit:4.0000000;stroke-opacity:1.0000000"
         transform="matrix(1.10538, 0, 0, 1.07964, -12.0141, -18.8673)"
         d="M 147.20601,156.41679 C 144.67035,156.42954 141.88421,156.89888 138.79976,157.94804 C 105.17650,177.48492 150.50459,208.98936 169.64351,236.04179 L 170.19602,236.18010 C 191.22900,206.61098 231.26801,174.07246 200.67476,157.94804 C 176.43799,149.70401 169.96344,177.14611 169.73726,178.13554 C 169.53987,177.27202 164.59485,156.32936 147.20601,156.41679 z " />
    </g>
    <g
       id="g5274"
       style="fill:#ff0000;fill-opacity:1.0000000"
       transform="matrix(-0.166355, 0, 0, -0.22966, -234.554, -36.0524)">
      <path
         id="path5276"
         style="fill-rule:evenodd;stroke:none;stroke-width:3.4289415;stroke-linecap:butt;stroke-linejoin:round;stroke-miterlimit:4.0000000;stroke-opacity:1.0000000"
         transform="matrix(1.10538, 0, 0, 1.07964, -12.0141, -18.8673)"
         d="M 147.20601,156.41679 C 144.67035,156.42954 141.88421,156.89888 138.79976,157.94804 C 105.17650,177.48492 150.50459,208.98936 169.64351,236.04179 L 170.19602,236.18010 C 191.22900,206.61098 231.26801,174.07246 200.67476,157.94804 C 176.43799,149.70401 169.96344,177.14611 169.73726,178.13554 C 169.53987,177.27202 164.59485,156.32936 147.20601,156.41679 z " />
    </g>
  </g>
  <metadata
     id="metadata47">
    <rdf:RDF>
      <cc:Work
         rdf:about="">
        <dc:title>card</dc:title>
        <dc:description />
        <dc:subject>
          <rdf:Bag>
            <rdf:li>ornamental</rdf:li>
            <rdf:li>card</rdf:li>
          </rdf:Bag>
        </dc:subject>
        <dc:publisher>
          <cc:Agent>
            <dc:title />
          </cc:Agent>
        </dc:publisher>
        <dc:creator>
          <cc:Agent>
            <dc:title>Nicu Buculei</dc:title>
          </cc:Agent>
        </dc:creator>
        <dc:rights>
          <cc:Agent>
            <dc:title>Nicu Buculei</dc:title>
          </cc:Agent>
        </dc:rights>
        <dc:date />
        <dc:format>image/svg+xml</dc:format>
        <dc:type
           rdf:resource="http://purl.org/dc/dcmitype/StillImage" />
        <cc:license
           rdf:resource="http://web.resource.org/cc/PublicDomain" />
        <dc:language>en</dc:language>
      </cc:Work>
      <cc:License
         rdf:about="http://web.resource.org/cc/PublicDomain">
        <cc:permits
           rdf:resource="http://web.resource.org/cc/Reproduction" />
        <cc:permits
           rdf:resource="http://web.resource.org/cc/Distribution" />
        <cc:permits
           rdf:resource="http://web.resource.org/cc/DerivativeWorks" />
      </cc:License>
    </rdf:RDF>
  </metadata>
</svg>
