<?xml version="1.0" encoding="UTF-8" standalone="no"?>
<!-- Created with Inkscape (http://www.inkscape.org/) -->

<svg
   xmlns:dc="http://purl.org/dc/elements/1.1/"
   xmlns:cc="http://creativecommons.org/ns#"
   xmlns:rdf="http://www.w3.org/1999/02/22-rdf-syntax-ns#"
   xmlns:svg="http://www.w3.org/2000/svg"
   xmlns="http://www.w3.org/2000/svg"
   xmlns:xlink="http://www.w3.org/1999/xlink"
   xmlns:sodipodi="http://sodipodi.sourceforge.net/DTD/sodipodi-0.dtd"
   xmlns:inkscape="http://www.inkscape.org/namespaces/inkscape"
   id="svg2"
   height="190.00000"
   width="140.00000"
   y="0.0000000"
   x="0.0000000"
   version="1.0"
   sodipodi:version="0.32"
   inkscape:version="0.48.0 r9654"
   sodipodi:docname="nicubunu_Ornamental_deck_8_of_hearts.svg">
  <sodipodi:namedview
     id="base"
     pagecolor="#ffffff"
     bordercolor="#666666"
     borderopacity="1.0"
     inkscape:pageopacity="0.0"
     inkscape:pageshadow="2"
     inkscape:window-width="1152"
     inkscape:window-height="791"
     inkscape:zoom="1.9105263"
     inkscape:cx="70.000003"
     inkscape:cy="95.000001"
     inkscape:window-x="0"
     inkscape:window-y="26"
     inkscape:current-layer="layer1"
     showgrid="false"
     inkscape:window-maximized="0" />
  <defs
     id="defs3">
    <linearGradient
       id="linearGradient2060">
      <stop
         id="stop2062"
         offset="0.0000000"
         style="stop-color:#ebf0d0;stop-opacity:1.0000000;" />
      <stop
         id="stop2064"
         offset="1.0000000"
         style="stop-color:#ffffeb;stop-opacity:1.0000000;" />
    </linearGradient>
    <linearGradient
       gradientTransform="translate(0, -1)"
       gradientUnits="userSpaceOnUse"
       xlink:href="#linearGradient2060"
       id="linearGradient4853"
       y2="128.69501"
       x2="109.00000"
       y1="63.099518"
       x1="2.0000000" />
    <linearGradient
       y2="128.69501"
       x2="109.00000"
       y1="63.099518"
       x1="2.0000000"
       gradientTransform="translate(0,-1)"
       gradientUnits="userSpaceOnUse"
       id="linearGradient24060"
       xlink:href="#linearGradient2060"
       inkscape:collect="always" />
  </defs>
  <g
     inkscape:label="Layer 1"
     inkscape:groupmode="layer"
     id="layer1">
    <g
       id="g24056"
       transform="translate(152.037, 99.5671)">
      <g
         id="g24058"
         transform="translate(351.5, 184.5)" />
    </g>
  </g>
  <path
     id="text1386"
     style="font-size:37.418461;font-style:normal;font-variant:normal;font-weight:bold;font-stretch:normal;fill:#ff0000;fill-opacity:1.0000000;stroke:none;stroke-width:1.0000000px;stroke-linecap:butt;stroke-linejoin:miter;stroke-opacity:1.0000000;font-family:Bitstream Vera Sans;text-anchor:start;writing-mode:lr-tb"
     d="M 20.843790,28.575298 C 19.647625,28.575313 18.728360,28.970486 18.085991,29.760820 C 17.443604,30.551178 17.122415,31.683114 17.122423,33.156632 C 17.122415,34.630168 17.443604,35.762104 18.085991,36.552445 C 18.728360,37.329401 19.647625,37.717876 20.843790,37.717872 C 22.028856,37.717876 22.937046,37.329401 23.568363,36.552445 C 24.199651,35.762104 24.515303,34.630168 24.515318,33.156632 C 24.515303,31.669719 24.199651,30.537782 23.568363,29.760820 C 22.937046,28.970486 22.028856,28.575313 20.843790,28.575298 M 16.175468,26.023415 C 14.669194,25.474208 13.533957,24.630279 12.769752,23.491626 C 12.005539,22.353010 11.623435,20.933067 11.623437,19.231790 C 11.623435,16.700025 12.404257,14.771046 13.965906,13.444842 C 15.527544,12.118697 17.820170,11.455610 20.843790,11.455579 C 23.845236,11.455610 26.126786,12.118697 27.688449,13.444842 C 29.250073,14.757649 30.030896,16.686630 30.030917,19.231790 C 30.030896,20.933067 29.643253,22.353010 28.867990,23.491626 C 28.103761,24.630279 26.968523,25.474208 25.462274,26.023415 C 27.145731,26.586051 28.413875,27.503656 29.266707,28.776235 C 30.130575,30.035443 30.562519,31.629531 30.562541,33.558503 C 30.562519,36.532356 29.742933,38.782835 28.103780,40.309942 C 26.475664,41.823658 24.055670,42.580515 20.843790,42.580515 C 17.620811,42.580515 15.184204,41.823658 13.533961,40.309942 C 11.894784,38.782835 11.075198,36.532356 11.075200,33.558503 C 11.075198,31.629531 11.501604,30.035443 12.354420,28.776235 C 13.218305,27.503656 14.491986,26.586051 16.175468,26.023415 M 17.670660,20.015439 C 17.670651,21.207679 17.942001,22.125283 18.484709,22.768258 C 19.038474,23.411271 19.824834,23.732767 20.843790,23.732749 C 21.840573,23.732767 22.610319,23.411271 23.153032,22.768258 C 23.695717,22.125283 23.967066,21.207679 23.967081,20.015439 C 23.967066,18.823244 23.695717,17.912336 23.153032,17.282713 C 22.610319,16.639745 21.840573,16.318249 20.843790,16.318222 C 19.824834,16.318249 19.038474,16.639745 18.484709,17.282713 C 17.942001,17.925732 17.670651,18.836639 17.670660,20.015439" />
  <g
     id="g1390"
     style="fill:#ff0000;fill-opacity:1.0000000"
     transform="matrix(0.286388, 0, 0, 0.388772, -29.6083, -9.47241)">
    <path
       id="path1392"
       style="fill-rule:evenodd;stroke:none;stroke-width:3.4289415;stroke-linecap:butt;stroke-linejoin:round;stroke-miterlimit:4.0000000;stroke-opacity:1.0000000"
       transform="matrix(1.10538, 0, 0, 1.07964, -12.0141, -18.8673)"
       d="M 147.20601,156.41679 C 144.67035,156.42954 141.88421,156.89888 138.79976,157.94804 C 105.17650,177.48492 150.50459,208.98936 169.64351,236.04179 L 170.19602,236.18010 C 191.22900,206.61098 231.26801,174.07246 200.67476,157.94804 C 176.43799,149.70401 169.96344,177.14611 169.73726,178.13554 C 169.53987,177.27202 164.59485,156.32936 147.20601,156.41679 z " />
  </g>
  <path
     id="text15077"
     style="font-size:37.418461;font-style:normal;font-variant:normal;font-weight:bold;font-stretch:normal;fill:#ff0000;fill-opacity:1.0000000;stroke:none;stroke-width:1.0000000px;stroke-linecap:butt;stroke-linejoin:miter;stroke-opacity:1.0000000;font-family:Bitstream Vera Sans;text-anchor:start;writing-mode:lr-tb"
     d="M 118.02167,160.42463 C 119.21783,160.42462 120.13709,160.02944 120.77946,159.23910 C 121.42184,158.44876 121.74304,157.31682 121.74303,155.84330 C 121.74304,154.36976 121.42184,153.23782 120.77946,152.44749 C 120.13709,151.67052 119.21783,151.28205 118.02167,151.28205 C 116.83660,151.28205 115.92841,151.67052 115.29709,152.44749 C 114.66580,153.23782 114.35015,154.36976 114.35013,155.84330 C 114.35015,157.33021 114.66580,158.46215 115.29709,159.23910 C 115.92841,160.02944 116.83660,160.42462 118.02167,160.42463 M 122.68998,162.97651 C 124.19626,163.52572 125.33149,164.36965 126.09570,165.50830 C 126.85991,166.64692 127.24201,168.06686 127.24201,169.76814 C 127.24201,172.29990 126.46119,174.22889 124.89955,175.55509 C 123.33791,176.88123 121.04528,177.54431 118.02167,177.54435 C 115.02022,177.54431 112.73867,176.88123 111.17700,175.55509 C 109.61538,174.24228 108.83455,172.31330 108.83454,169.76814 C 108.83455,168.06686 109.22220,166.64692 109.99746,165.50830 C 110.76170,164.36965 111.89692,163.52572 113.40318,162.97651 C 111.71972,162.41388 110.45158,161.49627 109.59874,160.22369 C 108.73488,158.96448 108.30293,157.37040 108.30292,155.44143 C 108.30293,152.46757 109.12252,150.21709 110.76168,148.68999 C 112.38979,147.17627 114.80978,146.41942 118.02167,146.41942 C 121.24464,146.41942 123.68125,147.17627 125.33149,148.68999 C 126.97067,150.21709 127.79026,152.46757 127.79026,155.44143 C 127.79026,157.37040 127.36385,158.96448 126.51103,160.22369 C 125.64715,161.49627 124.37347,162.41388 122.68998,162.97651 M 121.19480,168.98449 C 121.19480,167.79225 120.92345,166.87465 120.38074,166.23167 C 119.82698,165.58866 119.04062,165.26716 118.02167,165.26717 C 117.02488,165.26716 116.25513,165.58866 115.71242,166.23167 C 115.16974,166.87465 114.89838,167.79225 114.89837,168.98449 C 114.89838,170.17668 115.16974,171.08760 115.71242,171.71721 C 116.25513,172.36018 117.02488,172.68168 118.02167,172.68171 C 119.04062,172.68168 119.82698,172.36018 120.38074,171.71721 C 120.92345,171.07419 121.19480,170.16329 121.19480,168.98449" />
  <g
     id="g15081"
     style="fill:#ff0000;fill-opacity:1.0000000"
     transform="matrix(-0.286388, 0, 0, -0.388772, 168.47, 198.314)">
    <path
       id="path15083"
       style="fill-rule:evenodd;stroke:none;stroke-width:3.4289415;stroke-linecap:butt;stroke-linejoin:round;stroke-miterlimit:4.0000000;stroke-opacity:1.0000000"
       transform="matrix(1.10538, 0, 0, 1.07964, -12.0141, -18.8673)"
       d="M 147.20601,156.41679 C 144.67035,156.42954 141.88421,156.89888 138.79976,157.94804 C 105.17650,177.48492 150.50459,208.98936 169.64351,236.04179 L 170.19602,236.18010 C 191.22900,206.61098 231.26801,174.07246 200.67476,157.94804 C 176.43799,149.70401 169.96344,177.14611 169.73726,178.13554 C 169.53987,177.27202 164.59485,156.32936 147.20601,156.41679 z " />
  </g>
  <g
     id="g5202">
    <g
       id="g5581"
       transform="translate(351.5, 184.5)" />
  </g>
  <g
     id="g1861"
     style="fill-opacity:1.0000000;fill:#ff0000"
     transform="matrix(0.166355, 0, 0, 0.22966, 19.0539, 5.77234)">
    <path
       id="path1863"
       style="fill-rule:evenodd;stroke:none;stroke-width:3.4289415;stroke-linecap:butt;stroke-linejoin:round;stroke-miterlimit:4.0000000;stroke-opacity:1.0000000"
       transform="matrix(1.10538, 0, 0, 1.07964, -12.0141, -18.8673)"
       d="M 147.20601,156.41679 C 144.67035,156.42954 141.88421,156.89888 138.79976,157.94804 C 105.17650,177.48492 150.50459,208.98936 169.64351,236.04179 L 170.19602,236.18010 C 191.22900,206.61098 231.26801,174.07246 200.67476,157.94804 C 176.43799,149.70401 169.96344,177.14611 169.73726,178.13554 C 169.53987,177.27202 164.59485,156.32936 147.20601,156.41679 z " />
  </g>
  <g
     id="g5250"
     style="fill-opacity:1.0000000;fill:#ff0000"
     transform="matrix(0.166355, 0, 0, 0.22966, 58.0539, 5.55238)">
    <path
       id="path5252"
       style="fill-rule:evenodd;stroke:none;stroke-width:3.4289415;stroke-linecap:butt;stroke-linejoin:round;stroke-miterlimit:4.0000000;stroke-opacity:1.0000000"
       transform="matrix(1.10538, 0, 0, 1.07964, -12.0141, -18.8673)"
       d="M 147.20601,156.41679 C 144.67035,156.42954 141.88421,156.89888 138.79976,157.94804 C 105.17650,177.48492 150.50459,208.98936 169.64351,236.04179 L 170.19602,236.18010 C 191.22900,206.61098 231.26801,174.07246 200.67476,157.94804 C 176.43799,149.70401 169.96344,177.14611 169.73726,178.13554 C 169.53987,177.27202 164.59485,156.32936 147.20601,156.41679 z " />
  </g>
  <g
     id="g5254"
     style="fill-opacity:1.0000000;fill:#ff0000"
     transform="matrix(0.166355, 0, 0, 0.22966, 19.6939, 36.7723)">
    <path
       id="path5256"
       style="fill-rule:evenodd;stroke:none;stroke-width:3.4289415;stroke-linecap:butt;stroke-linejoin:round;stroke-miterlimit:4.0000000;stroke-opacity:1.0000000"
       transform="matrix(1.10538, 0, 0, 1.07964, -12.0141, -18.8673)"
       d="M 147.20601,156.41679 C 144.67035,156.42954 141.88421,156.89888 138.79976,157.94804 C 105.17650,177.48492 150.50459,208.98936 169.64351,236.04179 L 170.19602,236.18010 C 191.22900,206.61098 231.26801,174.07246 200.67476,157.94804 C 176.43799,149.70401 169.96344,177.14611 169.73726,178.13554 C 169.53987,177.27202 164.59485,156.32936 147.20601,156.41679 z " />
  </g>
  <g
     id="g5258"
     style="fill-opacity:1.0000000;fill:#ff0000"
     transform="matrix(0.166355, 0, 0, 0.22966, 59.0539, 35.7723)">
    <path
       id="path5260"
       style="fill-rule:evenodd;stroke:none;stroke-width:3.4289415;stroke-linecap:butt;stroke-linejoin:round;stroke-miterlimit:4.0000000;stroke-opacity:1.0000000"
       transform="matrix(1.10538, 0, 0, 1.07964, -12.0141, -18.8673)"
       d="M 147.20601,156.41679 C 144.67035,156.42954 141.88421,156.89888 138.79976,157.94804 C 105.17650,177.48492 150.50459,208.98936 169.64351,236.04179 L 170.19602,236.18010 C 191.22900,206.61098 231.26801,174.07246 200.67476,157.94804 C 176.43799,149.70401 169.96344,177.14611 169.73726,178.13554 C 169.53987,177.27202 164.59485,156.32936 147.20601,156.41679 z " />
  </g>
  <g
     id="g5262"
     style="fill-opacity:1.0000000;fill:#ff0000"
     transform="matrix(-0.166355, 0, 0, -0.22966, 78.3061, 154.228)">
    <path
       id="path5264"
       style="fill-rule:evenodd;stroke:none;stroke-width:3.4289415;stroke-linecap:butt;stroke-linejoin:round;stroke-miterlimit:4.0000000;stroke-opacity:1.0000000"
       transform="matrix(1.10538, 0, 0, 1.07964, -12.0141, -18.8673)"
       d="M 147.20601,156.41679 C 144.67035,156.42954 141.88421,156.89888 138.79976,157.94804 C 105.17650,177.48492 150.50459,208.98936 169.64351,236.04179 L 170.19602,236.18010 C 191.22900,206.61098 231.26801,174.07246 200.67476,157.94804 C 176.43799,149.70401 169.96344,177.14611 169.73726,178.13554 C 169.53987,177.27202 164.59485,156.32936 147.20601,156.41679 z " />
  </g>
  <g
     id="g5266"
     style="fill-opacity:1.0000000;fill:#ff0000"
     transform="matrix(-0.166355, 0, 0, -0.22966, 78.9461, 181.228)">
    <path
       id="path5268"
       style="fill-rule:evenodd;stroke:none;stroke-width:3.4289415;stroke-linecap:butt;stroke-linejoin:round;stroke-miterlimit:4.0000000;stroke-opacity:1.0000000"
       transform="matrix(1.10538, 0, 0, 1.07964, -12.0141, -18.8673)"
       d="M 147.20601,156.41679 C 144.67035,156.42954 141.88421,156.89888 138.79976,157.94804 C 105.17650,177.48492 150.50459,208.98936 169.64351,236.04179 L 170.19602,236.18010 C 191.22900,206.61098 231.26801,174.07246 200.67476,157.94804 C 176.43799,149.70401 169.96344,177.14611 169.73726,178.13554 C 169.53987,177.27202 164.59485,156.32936 147.20601,156.41679 z " />
  </g>
  <g
     id="g5270"
     style="fill-opacity:1.0000000;fill:#ff0000"
     transform="matrix(-0.166355, 0, 0, -0.22966, 116.306, 181.228)">
    <path
       id="path5272"
       style="fill-rule:evenodd;stroke:none;stroke-width:3.4289415;stroke-linecap:butt;stroke-linejoin:round;stroke-miterlimit:4.0000000;stroke-opacity:1.0000000"
       transform="matrix(1.10538, 0, 0, 1.07964, -12.0141, -18.8673)"
       d="M 147.20601,156.41679 C 144.67035,156.42954 141.88421,156.89888 138.79976,157.94804 C 105.17650,177.48492 150.50459,208.98936 169.64351,236.04179 L 170.19602,236.18010 C 191.22900,206.61098 231.26801,174.07246 200.67476,157.94804 C 176.43799,149.70401 169.96344,177.14611 169.73726,178.13554 C 169.53987,177.27202 164.59485,156.32936 147.20601,156.41679 z " />
  </g>
  <g
     id="g5274"
     style="fill-opacity:1.0000000;fill:#ff0000"
     transform="matrix(-0.166355, 0, 0, -0.22966, 117.946, 153.448)">
    <path
       id="path5276"
       style="fill-rule:evenodd;stroke:none;stroke-width:3.4289415;stroke-linecap:butt;stroke-linejoin:round;stroke-miterlimit:4.0000000;stroke-opacity:1.0000000"
       transform="matrix(1.10538, 0, 0, 1.07964, -12.0141, -18.8673)"
       d="M 147.20601,156.41679 C 144.67035,156.42954 141.88421,156.89888 138.79976,157.94804 C 105.17650,177.48492 150.50459,208.98936 169.64351,236.04179 L 170.19602,236.18010 C 191.22900,206.61098 231.26801,174.07246 200.67476,157.94804 C 176.43799,149.70401 169.96344,177.14611 169.73726,178.13554 C 169.53987,177.27202 164.59485,156.32936 147.20601,156.41679 z " />
  </g>
  <metadata
     id="metadata44">
    <rdf:RDF>
      <cc:Work
         rdf:about="">
        <dc:title>card</dc:title>
        <dc:description />
        <dc:subject>
          <rdf:Bag>
            <rdf:li>ornamental</rdf:li>
            <rdf:li>card</rdf:li>
          </rdf:Bag>
        </dc:subject>
        <dc:publisher>
          <cc:Agent>
            <dc:title />
          </cc:Agent>
        </dc:publisher>
        <dc:creator>
          <cc:Agent>
            <dc:title>Nicu Buculei</dc:title>
          </cc:Agent>
        </dc:creator>
        <dc:rights>
          <cc:Agent>
            <dc:title>Nicu Buculei</dc:title>
          </cc:Agent>
        </dc:rights>
        <dc:date />
        <dc:format>image/svg+xml</dc:format>
        <dc:type
           rdf:resource="http://purl.org/dc/dcmitype/StillImage" />
        <cc:license
           rdf:resource="http://web.resource.org/cc/PublicDomain" />
        <dc:language>en</dc:language>
      </cc:Work>
      <cc:License
         rdf:about="http://web.resource.org/cc/PublicDomain">
        <cc:permits
           rdf:resource="http://web.resource.org/cc/Reproduction" />
        <cc:permits
           rdf:resource="http://web.resource.org/cc/Distribution" />
        <cc:permits
           rdf:resource="http://web.resource.org/cc/DerivativeWorks" />
      </cc:License>
    </rdf:RDF>
  </metadata>
</svg>
