<?xml version="1.0" encoding="UTF-8" standalone="no"?>
<!-- Created with Inkscape (http://www.inkscape.org/) -->

<svg
   xmlns:dc="http://purl.org/dc/elements/1.1/"
   xmlns:cc="http://creativecommons.org/ns#"
   xmlns:rdf="http://www.w3.org/1999/02/22-rdf-syntax-ns#"
   xmlns:svg="http://www.w3.org/2000/svg"
   xmlns="http://www.w3.org/2000/svg"
   xmlns:xlink="http://www.w3.org/1999/xlink"
   xmlns:sodipodi="http://sodipodi.sourceforge.net/DTD/sodipodi-0.dtd"
   xmlns:inkscape="http://www.inkscape.org/namespaces/inkscape"
   id="svg2"
   height="190.00000"
   width="140.00000"
   y="0.0000000"
   x="0.0000000"
   version="1.0"
   sodipodi:version="0.32"
   inkscape:version="0.48.0 r9654"
   sodipodi:docname="nicubunu_Ornamental_frame.svg">
  <title
     id="title3024">e</title>
  <sodipodi:namedview
     id="base"
     pagecolor="#ffffff"
     bordercolor="#666666"
     borderopacity="1.0"
     inkscape:pageopacity="0.0"
     inkscape:pageshadow="2"
     inkscape:window-width="1152"
     inkscape:window-height="791"
     inkscape:zoom="1.9105263"
     inkscape:cx="29.794143"
     inkscape:cy="86.649972"
     inkscape:window-x="0"
     inkscape:window-y="26"
     inkscape:current-layer="layer1"
     showgrid="false"
     inkscape:window-maximized="0" />
  <defs
     id="defs3">
    <linearGradient
       id="linearGradient2060">
      <stop
         id="stop2062"
         offset="0.0000000"
         style="stop-color:#ebf0d0;stop-opacity:1.0000000;" />
      <stop
         id="stop2064"
         offset="1.0000000"
         style="stop-color:#ffffeb;stop-opacity:1.0000000;" />
    </linearGradient>
    <linearGradient
       gradientTransform="translate(0, -1)"
       gradientUnits="userSpaceOnUse"
       xlink:href="#linearGradient2060"
       id="linearGradient4853"
       y2="128.69501"
       x2="109.00000"
       y1="63.099518"
       x1="2.0000000" />
    <linearGradient
       inkscape:collect="always"
       xlink:href="#linearGradient2060"
       id="linearGradient3010"
       gradientUnits="userSpaceOnUse"
       gradientTransform="translate(0,-1)"
       x1="2.0000000"
       y1="63.099518"
       x2="109.00000"
       y2="128.69501" />
  </defs>
  <g
     inkscape:label="Layer 1"
     inkscape:groupmode="layer"
     id="layer1">
    <path
       style="fill:#000000;fill-opacity:0.49803922;stroke:none"
       d="m 21,5 103,0 c 8.864,0 16,7.136 16,16 l 0,153 c 0,8.864 -7.136,16 -16,16 L 21,190 C 12.136,190 5,182.864 5,174 L 5,21 C 5,12.136 12.136,5 21,5 z"
       id="rect2070"
       inkscape:connector-curvature="0" />
    <path
       style="fill:#ffffff;fill-opacity:1;stroke:none"
       d="m 17,1 103,0 c 8.864,0 16,7.136 16,16 l 0,153 c 0,8.864 -7.136,16 -16,16 L 17,186 C 8.136,186 1,178.864 1,170 L 1,17 C 1,8.136 8.136,1 17,1 z"
       id="rect1300"
       inkscape:connector-curvature="0" />
    <path
       style="fill:#c7891f;fill-opacity:1;stroke:none"
       d="m 19,3 103,0 c 8.864,0 16,7.136 16,16 l 0,153 c 0,8.864 -7.136,16 -16,16 L 19,188 C 10.136,188 3,180.864 3,172 L 3,19 C 3,10.136 10.136,3 19,3 z"
       id="path5624"
       inkscape:connector-curvature="0" />
    <path
       style="fill:url(#linearGradient3010);fill-opacity:1;stroke:#525252;stroke-opacity:1;stroke-width:0.7;stroke-miterlimit:4;stroke-dasharray:none"
       d="m 18,1.9999995 103,0 c 8.864,0 16,7.136 16,16.0000005 l 0,153 c 0,8.864 -7.136,16 -16,16 L 18,187 C 9.136,187 2,179.864 2,171 L 2,18 C 2,9.1359995 9.136,1.9999995 18,1.9999995 z"
       id="rect1306"
       inkscape:connector-curvature="0" />
    <path
       inkscape:connector-curvature="0"
       style="fill:#9f0000;fill-opacity:1;fill-rule:evenodd;stroke:none"
       d="m 103.53125,21 c -0.49728,0.0019 -0.9726,0.09931 -1.4375,0.28125 -0.9298,0.363884 -1.73845,1.111398 -2.03125,2.1875 -0.175565,0.645257 -0.122759,1.380922 0.1875,2 0.31026,0.61908 0.93159,1.119341 1.75,1.125 0.47552,0.0033 0.84996,-0.196201 1.15625,-0.53125 0.15315,-0.167525 0.31341,-0.415879 0.3125,-0.71875 -9.1e-4,-0.302872 -0.20998,-0.582731 -0.46875,-0.75 l -0.53125,0.8125 c 0.0701,0.04531 1.7e-4,-0.005 0,-0.0625 -1.8e-4,-0.05754 0.0172,-0.02179 -0.0312,0.03125 -0.097,0.106059 -0.45498,0.218627 -0.4375,0.21875 -0.42286,-0.0029 -0.65496,-0.21705 -0.84375,-0.59375 -0.18879,-0.3767 -0.22731,-0.905245 -0.125,-1.28125 0.20426,-0.750696 0.71786,-1.230594 1.40625,-1.5 0.68839,-0.269406 1.55215,-0.297696 2.25,-0.03125 2.11599,0.807899 2.82469,3.429281 1.9375,5.4375 -0.77925,1.763849 -2.58067,2.829585 -4.5,2.90625 l -62.78125,0.375 0,1 62.5625,-0.375 0,0.0625 c 0.0781,3.5e-4 0.14087,-0.05998 0.21875,-0.0625 l 0.34375,0 0,-0.09375 c 2.16345,-0.194223 4.19059,-1.361912 5.09375,-3.40625 C 108.66337,25.539367 107.7059,22.283134 105,21.25 104.5275,21.069599 104.02852,20.998062 103.53125,21 z m 11.40625,3.03125 c -0.67184,0.02277 -1.34578,0.162282 -1.96875,0.4375 -2.04434,0.90316 -3.21203,2.9303 -3.40625,5.09375 l -0.0937,0 0,0.34375 c -0.003,0.07788 -0.0628,0.14066 -0.0625,0.21875 l 0.0625,0 0.25,69.09375 1,0 -0.25,-69.3125 c 0.0767,-1.91933 1.1424,-3.72075 2.90625,-4.5 2.00822,-0.88719 4.6296,-0.17849 5.4375,1.9375 0.26645,0.69785 0.23816,1.56161 -0.0312,2.25 -0.2694,0.68839 -0.7493,1.20199 -1.5,1.40625 -0.376,0.10231 -0.90455,0.06379 -1.28125,-0.125 -0.3767,-0.18879 -0.59082,-0.42089 -0.59375,-0.84375 1.2e-4,0.01748 0.11269,-0.34055 0.21875,-0.4375 0.053,-0.04848 0.0888,-0.03107 0.0312,-0.03125 -0.0575,-1.7e-4 -0.10781,-0.07009 -0.0625,0 l 0.8125,-0.53125 c -0.16727,-0.25877 -0.44713,-0.46784 -0.75,-0.46875 -0.30287,-9.1e-4 -0.55122,0.15935 -0.71875,0.3125 -0.33505,0.30629 -0.53454,0.68073 -0.53125,1.15625 0.006,0.81841 0.50592,1.43974 1.125,1.75 0.61908,0.31026 1.35474,0.36307 2,0.1875 1.0761,-0.2928 1.82362,-1.10145 2.1875,-2.03125 0.18194,-0.4649 0.27931,-0.94022 0.28125,-1.4375 0.002,-0.49727 -0.0696,-0.99625 -0.25,-1.46875 -0.77485,-2.029425 -2.79699,-3.068302 -4.8125,-3 z M 29.28125,90 l 0.25,69.3125 c -0.07667,1.91933 -1.1424,3.72074 -2.90625,4.5 -2.00822,0.88719 -4.6296,0.17848 -5.4375,-1.9375 -0.26645,-0.69785 -0.23816,-1.56162 0.03125,-2.25 0.2694,-0.68839 0.7493,-1.202 1.5,-1.40625 0.376,-0.10231 0.90455,-0.0638 1.28125,0.125 0.3767,0.18879 0.59082,0.42088 0.59375,0.84375 -1.2e-4,-0.0175 -0.11269,0.34054 -0.21875,0.4375 -0.05304,0.0485 -0.08879,0.0311 -0.03125,0.0312 0.05754,1.7e-4 0.10781,0.0701 0.0625,0 l -0.8125,0.53125 c 0.16727,0.25877 0.44713,0.46783 0.75,0.46875 0.30287,9.1e-4 0.55122,-0.15936 0.71875,-0.3125 0.33505,-0.30629 0.53454,-0.68074 0.53125,-1.15625 -0.0057,-0.81841 -0.50592,-1.43975 -1.125,-1.75 -0.61908,-0.31026 -1.35474,-0.36308 -2,-0.1875 -1.0761,0.2928 -1.82362,1.10144 -2.1875,2.03125 -0.18194,0.4649 -0.27931,0.94021 -0.28125,1.4375 -0.0019,0.49727 0.0696,0.99624 0.25,1.46875 1.03313,2.7059 4.28937,3.66336 6.78125,2.5625 2.04434,-0.90316 3.21203,-2.93031 3.40625,-5.09375 l 0.09375,0 0,-0.34375 c 0.0025,-0.0779 0.06285,-0.14067 0.0625,-0.21875 l -0.0625,0 -0.25,-69.09375 -1,0 z m 71.375,67.3125 -62.5625,0.375 0,-0.0625 c -0.07809,-3.5e-4 -0.14087,0.06 -0.21875,0.0625 l -0.34375,0 0,0.0937 c -2.163451,0.19422 -4.19059,1.36191 -5.09375,3.40625 -1.100871,2.49189 -0.1434,5.74812 2.5625,6.78125 0.472499,0.1804 0.97148,0.25194 1.46875,0.25 0.497279,-0.002 0.9726,-0.0993 1.4375,-0.28125 0.929799,-0.36388 1.73845,-1.1114 2.03125,-2.1875 0.175565,-0.64526 0.122759,-1.38092 -0.1875,-2 -0.310261,-0.61908 -0.93159,-1.11934 -1.75,-1.125 -0.475521,-0.003 -0.84996,0.1962 -1.15625,0.53125 -0.153151,0.16753 -0.31341,0.41588 -0.3125,0.71875 9.09e-4,0.30287 0.20998,0.58273 0.46875,0.75 l 0.53125,-0.8125 c -0.07009,-0.0453 -1.7e-4,0.005 0,0.0625 1.79e-4,0.0575 -0.01723,0.0218 0.03125,-0.0312 0.09695,-0.10606 0.45498,-0.21863 0.4375,-0.21875 0.422859,0.003 0.65496,0.21705 0.84375,0.59375 0.188789,0.3767 0.22731,0.90525 0.125,1.28125 -0.204261,0.7507 -0.71786,1.2306 -1.40625,1.5 -0.688391,0.26941 -1.55215,0.2977 -2.25,0.0312 -2.115991,-0.8079 -2.82469,-3.42928 -1.9375,-5.4375 0.779249,-1.76385 2.58067,-2.82958 4.5,-2.90625 l 62.78125,-0.375 0,-1 z"
       id="path2869" />
    <g
       id="g19157"
       transform="translate(152.037, 99.5671)">
      <g
         id="g19159"
         transform="translate(351.5, 184.5)" />
    </g>
  </g>
  <g
     id="g5202"
     transform="translate(152.037, 99.5671)">
    <g
       id="g5581"
       transform="translate(351.5, 184.5)" />
  </g>
  <metadata
     id="metadata47">
    <rdf:RDF>
      <cc:Work
         rdf:about="">
        <dc:title>e</dc:title>
        <dc:description />
        <dc:subject>
          <rdf:Bag>
            <rdf:li>ornamental</rdf:li>
            <rdf:li>card</rdf:li>
          </rdf:Bag>
        </dc:subject>
        <dc:publisher>
          <cc:Agent>
            <dc:title />
          </cc:Agent>
        </dc:publisher>
        <dc:creator>
          <cc:Agent>
            <dc:title>Nicu Buculei</dc:title>
          </cc:Agent>
        </dc:creator>
        <dc:rights>
          <cc:Agent>
            <dc:title>Nicu Buculei</dc:title>
          </cc:Agent>
        </dc:rights>
        <dc:date />
        <dc:format>image/svg+xml</dc:format>
        <dc:type
           rdf:resource="http://purl.org/dc/dcmitype/StillImage" />
        <cc:license
           rdf:resource="http://web.resource.org/cc/PublicDomain" />
        <dc:language>en</dc:language>
      </cc:Work>
      <cc:License
         rdf:about="http://web.resource.org/cc/PublicDomain">
        <cc:permits
           rdf:resource="http://web.resource.org/cc/Reproduction" />
        <cc:permits
           rdf:resource="http://web.resource.org/cc/Distribution" />
        <cc:permits
           rdf:resource="http://web.resource.org/cc/DerivativeWorks" />
      </cc:License>
    </rdf:RDF>
  </metadata>
</svg>
