<?xml version="1.0" encoding="UTF-8" standalone="no"?>
<!-- Created with Inkscape (http://www.inkscape.org/) -->

<svg
   xmlns:dc="http://purl.org/dc/elements/1.1/"
   xmlns:cc="http://creativecommons.org/ns#"
   xmlns:rdf="http://www.w3.org/1999/02/22-rdf-syntax-ns#"
   xmlns:svg="http://www.w3.org/2000/svg"
   xmlns="http://www.w3.org/2000/svg"
   xmlns:xlink="http://www.w3.org/1999/xlink"
   xmlns:sodipodi="http://sodipodi.sourceforge.net/DTD/sodipodi-0.dtd"
   xmlns:inkscape="http://www.inkscape.org/namespaces/inkscape"
   sodipodi:docname="nicubunu_Ornamental_deck_2_of_spades.svg"
   inkscape:version="0.48.0 r9654"
   sodipodi:version="0.32"
   version="1.0"
   x="0.0000000"
   y="0.0000000"
   width="140.00000"
   height="190.00000"
   id="svg2">
  <sodipodi:namedview
     inkscape:current-layer="layer1"
     inkscape:window-y="26"
     inkscape:window-x="0"
     inkscape:cy="95"
     inkscape:cx="70"
     inkscape:zoom="1"
     inkscape:window-height="791"
     inkscape:window-width="1152"
     inkscape:pageshadow="2"
     inkscape:pageopacity="0.0"
     borderopacity="1.0"
     bordercolor="#666666"
     pagecolor="#ffffff"
     id="base"
     showgrid="false"
     inkscape:window-maximized="0" />
  <defs
     id="defs3">
    <linearGradient
       id="linearGradient2060">
      <stop
         style="stop-color:#ebf0d0;stop-opacity:1.0000000;"
         offset="0.0000000"
         id="stop2062" />
      <stop
         style="stop-color:#ffffeb;stop-opacity:1.0000000;"
         offset="1.0000000"
         id="stop2064" />
    </linearGradient>
    <linearGradient
       x1="2.0000000"
       y1="63.099518"
       x2="109.00000"
       y2="128.69501"
       id="linearGradient4853"
       xlink:href="#linearGradient2060"
       gradientUnits="userSpaceOnUse"
       gradientTransform="translate(0, -1)" />
    <linearGradient
       inkscape:collect="always"
       xlink:href="#linearGradient2060"
       id="linearGradient31465"
       gradientUnits="userSpaceOnUse"
       gradientTransform="translate(0,-1)"
       x1="2.0000000"
       y1="63.099518"
       x2="109.00000"
       y2="128.69501" />
  </defs>
  <g
     id="layer1"
     inkscape:groupmode="layer"
     inkscape:label="Layer 1">
    <g
       transform="translate(152.037, 99.5671)"
       id="g5202">
      <g
         transform="translate(351.5, 184.5)"
         id="g5581" />
    </g>
  </g>
  <g
     transform="matrix(0.593136, 0, 0, 0.238935, -85.4253, 14.5849)"
     style="stroke-opacity:1.0000000;stroke:none"
     id="g1729">
    <path
       sodipodi:nodetypes="cccccccccc"
       d="M 260.17615,149.59720 C 255.34000,168.83832 240.50022,201.60363 249.90118,211.71962 C 255.60767,216.37640 258.32331,206.84375 259.47349,200.53259 L 259.70387,200.53259 L 255.91411,232.36832 L 264.69161,232.27457 C 264.69161,232.27457 260.91045,201.67223 260.90185,200.50134 L 260.99400,200.50134 C 261.92301,205.65839 265.44822,216.33425 269.32607,212.26849 C 280.66519,200.87117 263.96806,168.43896 260.17615,149.59720 z "
       style="fill:#000000;fill-opacity:1.0000000;fill-rule:evenodd;stroke-width:0.75889903;stroke-linecap:butt;stroke-linejoin:round;stroke-miterlimit:4.0000000"
       id="path1731" />
  </g>
  <g
     transform="matrix(-0.593136, 0, 0, -0.238935, 223.04, 172.76)"
     style="stroke-opacity:1.0000000;stroke:none"
     id="g1753">
    <path
       sodipodi:nodetypes="cccccccccc"
       d="M 260.17615,149.59720 C 255.34000,168.83832 240.50022,201.60363 249.90118,211.71962 C 255.60767,216.37640 258.32331,206.84375 259.47349,200.53259 L 259.70387,200.53259 L 255.91411,232.36832 L 264.69161,232.27457 C 264.69161,232.27457 260.91045,201.67223 260.90185,200.50134 L 260.99400,200.50134 C 261.92301,205.65839 265.44822,216.33425 269.32607,212.26849 C 280.66519,200.87117 263.96806,168.43896 260.17615,149.59720 z "
       style="fill:#000000;fill-opacity:1.0000000;fill-rule:evenodd;stroke-width:0.75889903;stroke-linecap:butt;stroke-linejoin:round;stroke-miterlimit:4.0000000"
       id="path1755" />
  </g>
  <g
     transform="matrix(1.00001, 0, 0, 0.400814, -239.537, -11.0517)"
     id="g2373">
    <path
       sodipodi:nodetypes="cccccccccccc"
       d="M 260.17870,148.98858 C 255.25443,168.51051 240.14427,201.75400 249.71652,212.01763 C 255.52698,216.74237 258.29210,207.07060 259.46324,200.66733 L 259.69781,200.66733 C 259.68900,201.87137 255.80381,229.63867 255.80381,229.63867 L 255.83900,232.96768 L 264.77643,232.87256 L 264.81162,229.57526 C 264.81162,229.57526 260.92638,201.82360 260.91762,200.63563 L 261.01145,200.63563 C 261.95739,205.86794 265.54682,216.69960 269.49533,212.57451 C 281.04105,201.01085 264.03970,168.10532 260.17870,148.98858 z "
       style="fill:#000000;fill-opacity:1.0000000;fill-rule:evenodd;stroke:none;stroke-width:0.75889903;stroke-linecap:butt;stroke-linejoin:round;stroke-miterlimit:4.0000000;stroke-opacity:1.0000000"
       id="path2375" />
  </g>
  <path
     d="M 18.800464,36.311376 L 29.715367,36.311376 L 29.715367,41.997847 L 11.689997,41.997847 L 11.689997,36.311376 L 20.744218,26.646373 C 21.552715,25.762269 22.150786,24.898248 22.538450,24.054297 C 22.926077,23.210390 23.119899,22.332973 23.119908,21.422046 C 23.119899,20.015520 22.726716,18.883583 21.940369,18.026237 C 21.165070,17.168935 20.129516,16.740268 18.833689,16.740246 C 17.836889,16.740268 16.745950,17.001484 15.560883,17.523896 C 14.375798,18.032957 13.107659,18.796515 11.756456,19.814559 L 11.756456,13.223869 C 13.196259,12.647888 14.619458,12.212523 16.026054,11.917796 C 17.432631,11.609718 18.811530,11.455673 20.162750,11.455640 C 23.130974,11.455673 25.434667,12.246022 27.073857,13.826685 C 28.724086,15.407404 29.549214,17.610987 29.549232,20.437457 C 29.549214,22.071756 29.200341,23.598861 28.502603,25.018793 C 27.804829,26.425352 26.337321,28.314149 24.100087,30.685172 L 18.800464,36.311376"
     style="font-size:37.418446;font-style:normal;font-variant:normal;font-weight:bold;font-stretch:normal;fill:#000000;fill-opacity:1.0000000;stroke:none;stroke-width:1.0000000px;stroke-linecap:butt;stroke-linejoin:miter;stroke-opacity:1.0000000;font-family:Bitstream Vera Sans;text-anchor:start;writing-mode:lr-tb"
     id="text2035" />
  <g
     transform="matrix(-1.00001, 0, 0, -0.400814, 378.457, 199.961)"
     id="g2058">
    <path
       sodipodi:nodetypes="cccccccccc"
       d="M 259.93860,149.59720 C 255.01434,169.11913 239.90418,202.36262 249.47642,212.62625 C 255.28689,217.35099 258.05200,207.67922 259.22314,201.27595 L 259.45772,201.27595 L 255.59891,233.57630 L 264.53633,233.48118 C 264.53633,233.48118 260.68628,202.43223 260.67753,201.24425 L 260.77135,201.24425 C 261.71729,206.47656 265.30673,217.30823 269.25523,213.18313 C 280.80095,201.61948 263.79960,168.71394 259.93860,149.59720 z "
       style="fill:#000000;fill-opacity:1.0000000;fill-rule:evenodd;stroke:none;stroke-width:0.75889903;stroke-linecap:butt;stroke-linejoin:round;stroke-miterlimit:4.0000000;stroke-opacity:1.0000000"
       id="path2060" />
  </g>
  <path
     d="M 120.11982,152.44429 L 109.20492,152.44429 L 109.20492,146.75781 L 127.23029,146.75781 L 127.23029,152.44429 L 118.17607,162.10929 C 117.36757,162.99339 116.76950,163.85741 116.38183,164.70136 C 115.99421,165.54527 115.80039,166.42269 115.80038,167.33362 C 115.80039,168.74014 116.19357,169.87208 116.97992,170.72943 C 117.75521,171.58673 118.79077,172.01539 120.08660,172.01542 C 121.08340,172.01539 122.17433,171.75417 123.35940,171.23177 C 124.54449,170.72271 125.81263,169.95915 127.16383,168.94110 L 127.16383,175.53179 C 125.72403,176.10778 124.30083,176.54314 122.89423,176.83787 C 121.48765,177.14594 120.10875,177.29999 118.75753,177.30002 C 115.78931,177.29999 113.48562,176.50965 111.84643,174.92898 C 110.19620,173.34826 109.37107,171.14467 109.37105,168.31820 C 109.37107,166.68391 109.71995,165.15680 110.41768,163.73687 C 111.11546,162.33031 112.58296,160.44151 114.82020,158.07049 L 120.11982,152.44429"
     style="font-size:37.418446;font-style:normal;font-variant:normal;font-weight:bold;font-stretch:normal;fill:#000000;fill-opacity:1.0000000;stroke:none;stroke-width:1.0000000px;stroke-linecap:butt;stroke-linejoin:miter;stroke-opacity:1.0000000;font-family:Bitstream Vera Sans;text-anchor:start;writing-mode:lr-tb"
     id="text2062" />
  <metadata
     id="metadata30">
    <rdf:RDF>
      <cc:Work
         rdf:about="">
        <dc:title>card</dc:title>
        <dc:description />
        <dc:subject>
          <rdf:Bag>
            <rdf:li>ornamental</rdf:li>
            <rdf:li>card</rdf:li>
          </rdf:Bag>
        </dc:subject>
        <dc:publisher>
          <cc:Agent>
            <dc:title />
          </cc:Agent>
        </dc:publisher>
        <dc:creator>
          <cc:Agent>
            <dc:title>Nicu Buculei</dc:title>
          </cc:Agent>
        </dc:creator>
        <dc:rights>
          <cc:Agent>
            <dc:title>Nicu Buculei</dc:title>
          </cc:Agent>
        </dc:rights>
        <dc:date />
        <dc:format>image/svg+xml</dc:format>
        <dc:type
           rdf:resource="http://purl.org/dc/dcmitype/StillImage" />
        <cc:license
           rdf:resource="http://web.resource.org/cc/PublicDomain" />
        <dc:language>en</dc:language>
      </cc:Work>
      <cc:License
         rdf:about="http://web.resource.org/cc/PublicDomain">
        <cc:permits
           rdf:resource="http://web.resource.org/cc/Reproduction" />
        <cc:permits
           rdf:resource="http://web.resource.org/cc/Distribution" />
        <cc:permits
           rdf:resource="http://web.resource.org/cc/DerivativeWorks" />
      </cc:License>
    </rdf:RDF>
  </metadata>
</svg>
