<?xml version="1.0" encoding="UTF-8" standalone="no"?>
<!-- Created with Inkscape (http://www.inkscape.org/) -->

<svg
   xmlns:dc="http://purl.org/dc/elements/1.1/"
   xmlns:cc="http://creativecommons.org/ns#"
   xmlns:rdf="http://www.w3.org/1999/02/22-rdf-syntax-ns#"
   xmlns:svg="http://www.w3.org/2000/svg"
   xmlns="http://www.w3.org/2000/svg"
   xmlns:xlink="http://www.w3.org/1999/xlink"
   xmlns:sodipodi="http://sodipodi.sourceforge.net/DTD/sodipodi-0.dtd"
   xmlns:inkscape="http://www.inkscape.org/namespaces/inkscape"
   id="svg2"
   height="190.00000"
   width="140.00000"
   y="0.0000000"
   x="0.0000000"
   version="1.0"
   sodipodi:version="0.32"
   inkscape:version="0.48.0 r9654"
   sodipodi:docname="nicubunu_Ornamental_deck_Jack_of_clubs.svg">
  <sodipodi:namedview
     id="base"
     pagecolor="#ffffff"
     bordercolor="#666666"
     borderopacity="1.0"
     inkscape:pageopacity="0.0"
     inkscape:pageshadow="2"
     inkscape:window-width="1152"
     inkscape:window-height="791"
     inkscape:zoom="1"
     inkscape:cx="70"
     inkscape:cy="95"
     inkscape:window-x="0"
     inkscape:window-y="26"
     inkscape:current-layer="layer1"
     showgrid="false"
     inkscape:window-maximized="0" />
  <defs
     id="defs3">
    <linearGradient
       id="linearGradient2060">
      <stop
         id="stop2062"
         offset="0.0000000"
         style="stop-color:#ebf0d0;stop-opacity:1.0000000;" />
      <stop
         id="stop2064"
         offset="1.0000000"
         style="stop-color:#ffffeb;stop-opacity:1.0000000;" />
    </linearGradient>
    <linearGradient
       gradientTransform="translate(0, -1)"
       gradientUnits="userSpaceOnUse"
       xlink:href="#linearGradient2060"
       id="linearGradient4853"
       y2="128.69501"
       x2="109.00000"
       y1="63.099518"
       x1="2.0000000" />
    <linearGradient
       y2="55.781250"
       x2="109.50000"
       y1="57.468750"
       x1="104.75000"
       gradientUnits="userSpaceOnUse"
       id="linearGradient2286"
       xlink:href="#linearGradient5407"
       inkscape:collect="always" />
    <linearGradient
       id="linearGradient6214">
      <stop
         style="stop-color:#c10000;stop-opacity:1.0000000;"
         offset="0.0000000"
         id="stop6216" />
      <stop
         style="stop-color:#ff433e;stop-opacity:1.0000000;"
         offset="1.0000000"
         id="stop6218" />
    </linearGradient>
    <linearGradient
       id="linearGradient5417">
      <stop
         id="stop5419"
         offset="0.0000000"
         style="stop-color:#f0a700;stop-opacity:1.0000000;" />
      <stop
         id="stop5421"
         offset="1.0000000"
         style="stop-color:#ffed00;stop-opacity:1.0000000;" />
    </linearGradient>
    <linearGradient
       id="linearGradient5407">
      <stop
         style="stop-color:#f0eb00;stop-opacity:1.0000000;"
         offset="0.0000000"
         id="stop5409" />
      <stop
         style="stop-color:#ffff00;stop-opacity:1.0000000;"
         offset="1.0000000"
         id="stop5411" />
    </linearGradient>
    <linearGradient
       id="linearGradient3865">
      <stop
         style="stop-color:#0083cc;stop-opacity:1;"
         offset="0"
         id="stop3867" />
      <stop
         style="stop-color:#24a4cc;stop-opacity:1.0000000;"
         offset="1.0000000"
         id="stop3869" />
    </linearGradient>
    <linearGradient
       id="linearGradient3857">
      <stop
         style="stop-color:#ffd8c1;stop-opacity:1.0000000;"
         offset="0.0000000"
         id="stop3859" />
      <stop
         style="stop-color:#ffeded;stop-opacity:1.0000000;"
         offset="1.0000000"
         id="stop3861" />
    </linearGradient>
    <linearGradient
       inkscape:collect="always"
       id="linearGradient2580">
      <stop
         style="stop-color:#ffffff;stop-opacity:1;"
         offset="0"
         id="stop2582" />
      <stop
         style="stop-color:#ffffff;stop-opacity:0;"
         offset="1"
         id="stop2584" />
    </linearGradient>
    <linearGradient
       id="linearGradient3196">
      <stop
         style="stop-color:#008200;stop-opacity:1.0000000;"
         offset="0.0000000"
         id="stop3198" />
      <stop
         style="stop-color:#00d000;stop-opacity:1.0000000;"
         offset="1.0000000"
         id="stop3200" />
    </linearGradient>
    <linearGradient
       id="linearGradient4408">
      <stop
         style="stop-color:#ff44ab;stop-opacity:1.0000000;"
         offset="0.0000000"
         id="stop4410" />
      <stop
         style="stop-color:#ff66cc;stop-opacity:1.0000000;"
         offset="1.0000000"
         id="stop4412" />
    </linearGradient>
    <linearGradient
       y2="57.702003"
       x2="117.13919"
       y1="62.938114"
       x1="93.499947"
       gradientTransform="translate(-35.991, 2.4696)"
       gradientUnits="userSpaceOnUse"
       id="linearGradient34766"
       xlink:href="#linearGradient4408"
       inkscape:collect="always" />
    <linearGradient
       y2="62.671051"
       x2="111.88306"
       y1="65.108551"
       x1="103.56250"
       gradientTransform="translate(-39.5185, 2.5946)"
       gradientUnits="userSpaceOnUse"
       id="linearGradient34769"
       xlink:href="#linearGradient5407"
       inkscape:collect="always" />
    <linearGradient
       y2="103.33409"
       x2="112.89091"
       y1="108.76363"
       x1="98.818184"
       gradientTransform="translate(-40.1364, 3.506)"
       gradientUnits="userSpaceOnUse"
       id="linearGradient34772"
       xlink:href="#linearGradient3865"
       inkscape:collect="always" />
    <linearGradient
       y2="120.97331"
       x2="105.54549"
       y1="124.16081"
       x1="101.39262"
       gradientTransform="translate(-35.991, 2.4696)"
       gradientUnits="userSpaceOnUse"
       id="linearGradient34775"
       xlink:href="#linearGradient5407"
       inkscape:collect="always" />
    <linearGradient
       y2="322.13895"
       x2="312.09238"
       y1="346.32654"
       x1="294.24606"
       gradientTransform="matrix(0.144857, 0, 0, 0.144857, 17.4563, 51.5584)"
       gradientUnits="userSpaceOnUse"
       id="linearGradient34782"
       xlink:href="#linearGradient6214"
       inkscape:collect="always" />
    <linearGradient
       y2="256.17966"
       x2="484.79608"
       y1="437.49887"
       x1="356.44232"
       gradientTransform="matrix(0.186825, 0, 0, 0.144857, -5.33661, 38.2251)"
       gradientUnits="userSpaceOnUse"
       id="linearGradient34797"
       xlink:href="#linearGradient3857"
       inkscape:collect="always" />
    <linearGradient
       gradientUnits="userSpaceOnUse"
       y2="129.50204"
       x2="74.325531"
       y1="154.54619"
       x1="51.852074"
       gradientTransform="scale(1.14039, 0.87689)"
       id="linearGradient35570"
       xlink:href="#linearGradient4408"
       inkscape:collect="always" />
    <linearGradient
       y2="344.41714"
       x2="410.90594"
       y1="77.394516"
       x1="652.29529"
       gradientTransform="matrix(0.186852, 0, 0, 0.144857, -5.34103, 38.2367)"
       gradientUnits="userSpaceOnUse"
       id="linearGradient35622"
       xlink:href="#linearGradient2580"
       inkscape:collect="always" />
    <linearGradient
       inkscape:collect="always"
       xlink:href="#linearGradient2060"
       id="linearGradient7464"
       gradientUnits="userSpaceOnUse"
       gradientTransform="translate(0, -1)"
       x1="2.0000000"
       y1="63.099518"
       x2="109.00000"
       y2="128.69501" />
    <linearGradient
       inkscape:collect="always"
       xlink:href="#linearGradient2580"
       id="linearGradient7467"
       gradientUnits="userSpaceOnUse"
       gradientTransform="matrix(0.186852, 0, 0, 0.144857, -5.341, 38.2367)"
       x1="652.29529"
       y1="77.394516"
       x2="410.90594"
       y2="344.41714" />
    <linearGradient
       inkscape:collect="always"
       xlink:href="#linearGradient4408"
       id="linearGradient7471"
       gradientUnits="userSpaceOnUse"
       gradientTransform="translate(-35.991, 2.4696)"
       x1="93.499947"
       y1="62.938114"
       x2="117.13919"
       y2="57.702003" />
    <linearGradient
       inkscape:collect="always"
       xlink:href="#linearGradient5407"
       id="linearGradient7474"
       gradientUnits="userSpaceOnUse"
       gradientTransform="translate(-39.5185, 2.5946)"
       x1="103.56250"
       y1="65.108551"
       x2="111.88306"
       y2="62.671051" />
    <linearGradient
       inkscape:collect="always"
       xlink:href="#linearGradient3865"
       id="linearGradient7477"
       gradientUnits="userSpaceOnUse"
       gradientTransform="translate(-40.1364, 3.506)"
       x1="98.818184"
       y1="108.76363"
       x2="112.89091"
       y2="103.33409" />
    <linearGradient
       inkscape:collect="always"
       xlink:href="#linearGradient5407"
       id="linearGradient7480"
       gradientUnits="userSpaceOnUse"
       gradientTransform="translate(-35.991, 2.4696)"
       x1="101.39262"
       y1="124.16081"
       x2="105.54549"
       y2="120.97331" />
    <linearGradient
       inkscape:collect="always"
       xlink:href="#linearGradient6214"
       id="linearGradient7487"
       gradientUnits="userSpaceOnUse"
       gradientTransform="matrix(0.144857, 0, 0, 0.144857, 17.4563, 51.5584)"
       x1="294.24606"
       y1="346.32654"
       x2="312.09238"
       y2="322.13895" />
    <linearGradient
       inkscape:collect="always"
       xlink:href="#linearGradient4408"
       id="linearGradient7499"
       gradientUnits="userSpaceOnUse"
       gradientTransform="scale(1.14039, 0.87689)"
       x1="51.852074"
       y1="154.54619"
       x2="74.325531"
       y2="129.50204" />
    <linearGradient
       inkscape:collect="always"
       xlink:href="#linearGradient3857"
       id="linearGradient7502"
       gradientUnits="userSpaceOnUse"
       gradientTransform="matrix(0.186825, 0, 0, 0.144857, -5.33661, 38.2251)"
       x1="356.44232"
       y1="437.49887"
       x2="484.79608"
       y2="256.17966" />
  </defs>
  <g
     id="layer1"
     inkscape:groupmode="layer"
     inkscape:label="Layer 1">
    <g
       transform="translate(152.037, 99.5671)"
       id="g5202">
      <g
         transform="translate(351.5, 184.5)"
         id="g5581" />
    </g>
  </g>
  <path
     id="text1883"
     style="font-size:33.227493;font-style:normal;font-variant:normal;font-weight:bold;font-stretch:normal;fill:#000000;fill-opacity:1.0000000;stroke:none;stroke-width:1.0000000px;stroke-linecap:butt;stroke-linejoin:miter;stroke-opacity:1.0000000;font-family:Bitstream Vera Sans;text-anchor:start;writing-mode:lr-tb"
     d="M 18.683447,12.233829 L 25.079472,12.233829 L 25.079472,33.592566 C 25.079461,36.539690 24.237735,38.742110 22.554288,40.199831 C 20.881902,41.657543 18.345646,42.386401 14.945512,42.386408 L 13.649694,42.386408 L 13.649694,37.775582 L 14.646476,37.775582 C 15.975520,37.775580 16.977840,37.421715 17.653439,36.713983 C 18.340108,36.006251 18.683444,34.965779 18.683447,33.592566 L 18.683447,12.233829" />
  <path
     id="text4345"
     style="font-size:33.227493;font-style:normal;font-variant:normal;font-weight:bold;font-stretch:normal;fill:#000000;fill-opacity:1.0000000;stroke:none;stroke-width:1.0000000px;stroke-linecap:butt;stroke-linejoin:miter;stroke-opacity:1.0000000;font-family:Bitstream Vera Sans;text-anchor:start;writing-mode:lr-tb"
     d="M 119.99602,176.99995 L 113.60000,176.99995 L 113.60000,155.64121 C 113.60001,152.69409 114.44174,150.49166 116.12519,149.03394 C 117.79757,147.57623 120.33383,146.84737 123.73396,146.84737 L 125.02977,146.84737 L 125.02977,151.45820 L 124.03299,151.45820 C 122.70395,151.45820 121.70164,151.81206 121.02603,152.51979 C 120.33937,153.22753 119.99603,154.26800 119.99602,155.64121 L 119.99602,176.99995" />
  <path
     sodipodi:nodetypes="cscsssccccccssscsc"
     id="path908"
     style="fill:#000000;fill-opacity:1.0000000;fill-rule:evenodd;stroke:none;stroke-width:1.0000000pt;stroke-linecap:butt;stroke-linejoin:miter;stroke-opacity:1.0000000"
     d="M 20.527261,48.665000 C 17.860877,48.665000 15.697394,51.928523 15.697394,55.950664 C 15.697394,59.377240 20.089490,65.142330 19.918919,67.880240 C 18.508668,68.662660 14.151660,61.442720 11.899866,61.442720 C 9.2334820,61.442720 7.0700000,64.706240 7.0700000,68.728380 C 7.0700000,72.750530 9.2334820,76.014050 11.899866,76.014050 C 14.212394,76.014050 18.175527,68.800060 19.918919,69.451390 L 16.990005,82.325000 L 24.013589,82.283290 C 24.013589,82.283290 20.936644,69.802100 20.932822,69.507000 L 20.988126,69.507000 L 20.988126,69.520910 C 22.695429,68.881200 26.793987,76.153080 29.090134,76.153090 C 31.756521,76.153090 33.920003,72.889570 33.920000,68.867420 C 33.920000,64.845280 31.756521,61.581760 29.090134,61.581760 C 26.847510,61.581760 22.782426,68.682290 20.997343,67.949760 C 21.022420,65.144330 25.357127,59.373473 25.357127,55.950664 C 25.357127,51.928523 23.193647,48.665000 20.527261,48.665000 z " />
  <path
     sodipodi:nodetypes="cscsssccccccssscsc"
     id="path4322"
     style="fill:#000000;fill-opacity:1.0000000;fill-rule:evenodd;stroke:none;stroke-width:1.0000000pt;stroke-linecap:butt;stroke-linejoin:miter;stroke-opacity:1.0000000"
     d="M 117.41824,139.96250 C 120.08462,139.96250 122.24811,136.69898 122.24811,132.67684 C 122.24811,129.25026 117.85601,123.48517 118.02658,120.74726 C 119.43683,119.96484 123.79384,127.18478 126.04563,127.18478 C 128.71202,127.18478 130.87550,123.92126 130.87550,119.89912 C 130.87550,115.87697 128.71202,112.61345 126.04563,112.61345 C 123.73311,112.61345 119.76997,119.82744 118.02658,119.17611 L 120.95550,106.30250 L 113.93191,106.34421 C 113.93191,106.34421 117.00886,118.82540 117.01268,119.12050 L 116.95737,119.12050 L 116.95737,119.10659 C 115.25007,119.74630 111.15151,112.47442 108.85537,112.47441 C 106.18898,112.47441 104.02550,115.73793 104.02550,119.76008 C 104.02550,123.78222 106.18898,127.04574 108.85537,127.04574 C 111.09799,127.04574 115.16307,119.94521 116.94816,120.67774 C 116.92308,123.48317 112.58837,129.25403 112.58837,132.67684 C 112.58837,136.69898 114.75185,139.96250 117.41824,139.96250 z " />
  <g
     id="g7505">
    <path
       style="fill:#000000;fill-opacity:1.0000000;stroke:none;stroke-width:2.0000000;stroke-miterlimit:4.0000000;stroke-dashoffset:0.0000000;stroke-opacity:1.0000000"
       d="M 67.891660,54.313350 C 61.919690,58.087230 54.422210,51.148110 50.438990,59.192640 C 46.943560,63.974950 57.968720,65.366450 51.008620,69.616550 C 46.252400,74.740930 46.531810,76.996930 50.639440,77.624250 C 49.457120,83.287940 50.319050,92.795050 52.913530,97.979670 C 49.702030,101.88287 52.109110,100.54205 56.466290,101.35580 C 55.112450,103.51032 55.889820,111.40541 51.259020,113.84460 C 48.927780,120.86613 50.675550,128.48682 50.134020,135.75085 C 61.408960,140.49909 74.759060,141.03840 85.536940,138.50555 C 90.275370,137.51513 95.682270,137.13709 94.727770,130.37585 C 95.011380,121.94957 96.010400,110.85777 86.817730,106.54553 C 81.444580,105.79284 79.653390,102.15784 83.777430,96.996100 C 86.840300,88.638000 90.217230,92.134960 94.920890,90.021190 C 99.821990,88.710020 87.919490,85.481570 89.491310,80.043910 C 87.968630,75.790050 86.107620,70.786170 83.061450,67.332790 C 90.740390,66.643170 91.563400,58.635390 85.321520,57.000850 C 79.134960,52.878540 75.484400,59.914610 70.776680,54.626240 C 69.997340,54.612940 68.674500,54.122390 67.891660,54.313350 z "
       id="path2136"
       sodipodi:nodetypes="cccccccccccccccccc" />
    <path
       style="fill:url(#linearGradient7502);fill-opacity:1.0000000;stroke:none;stroke-width:2.0000000;stroke-miterlimit:4.0000000;stroke-dashoffset:0.0000000;stroke-opacity:1.0000000"
       d="M 85.235420,85.572650 C 85.235420,96.985980 77.671550,106.24898 68.351780,106.24898 C 59.032010,106.24898 51.468150,96.985980 51.468150,85.572650 C 51.468150,74.159320 59.032010,64.896320 68.351780,64.896320 C 77.671550,64.896320 85.235420,74.159320 85.235420,85.572650 z "
       id="path2140" />
    <path
       style="fill:url(#linearGradient7499);fill-opacity:1.0000000;stroke:none;stroke-width:2.0000000;stroke-miterlimit:4.0000000;stroke-dashoffset:0.0000000;stroke-opacity:1.0000000"
       d="M 64.845010,106.72675 C 57.795950,106.72675 52.120190,112.40251 52.120190,119.45156 L 52.120190,134.38092 C 61.500080,139.03005 81.646370,139.27474 92.739100,134.38092 L 92.739100,119.45156 C 92.739100,112.40251 87.063340,106.72675 80.014280,106.72675 L 64.845010,106.72675 z "
       id="path2142"
       sodipodi:nodetypes="ccccccc" />
    <path
       style="fill:#6d2b00;fill-opacity:1.0000000;fill-rule:evenodd;stroke:none;stroke-width:1.5371202px;stroke-linecap:butt;stroke-linejoin:miter;stroke-opacity:1.0000000"
       d="M 49.637780,75.941420 C 52.164990,71.412860 54.692200,62.760840 68.765110,62.850560 C 90.605200,63.490450 85.395370,86.232110 93.215690,88.686320 C 88.362810,90.263630 85.917010,91.614790 78.674980,89.116490 C 79.466650,83.417500 78.175520,79.237650 74.749850,76.301360 C 70.480960,78.540230 54.010820,77.475970 49.637780,75.941420 z "
       id="path2144"
       sodipodi:nodetypes="cccccc" />
    <g
       id="g2146"
       transform="matrix(0.144857, 0, 0, 0.097903, 17.2579, 62.2885)">
      <path
         transform="translate(-4, -6)"
         style="fill:#ffffff;fill-opacity:1.0000000;stroke:none;stroke-width:2.0000000;stroke-miterlimit:4.0000000;stroke-dashoffset:0.0000000;stroke-opacity:1.0000000"
         d="M 353.00000,245.86218 C 353.00000,257.73018 343.59200,267.36218 332.00000,267.36218 C 320.40800,267.36218 311.00000,257.73018 311.00000,245.86218 C 311.00000,233.99418 320.40800,224.36218 332.00000,224.36218 C 343.59200,224.36218 353.00000,233.99418 353.00000,245.86218 z "
         id="path2148" />
      <path
         transform="matrix(0.571429, 0, 0, 0.83721, 129.286, 34.5241)"
         style="fill:#b67870;fill-opacity:1.0000000;stroke:none;stroke-width:2.0000000;stroke-miterlimit:4.0000000;stroke-dashoffset:0.0000000;stroke-opacity:1.0000000"
         d="M 353.00000,245.86218 C 353.00000,257.73018 343.59200,267.36218 332.00000,267.36218 C 320.40800,267.36218 311.00000,257.73018 311.00000,245.86218 C 311.00000,233.99418 320.40800,224.36218 332.00000,224.36218 C 343.59200,224.36218 353.00000,233.99418 353.00000,245.86218 z "
         id="path2150" />
      <path
         transform="matrix(0.357143, 0, 0, 0.674419, 195.929, 76.0482)"
         style="fill:#000000;fill-opacity:1.0000000;stroke:none;stroke-width:2.0000000;stroke-miterlimit:4.0000000;stroke-dashoffset:0.0000000;stroke-opacity:1.0000000"
         d="M 353.00000,245.86218 C 353.00000,257.73018 343.59200,267.36218 332.00000,267.36218 C 320.40800,267.36218 311.00000,257.73018 311.00000,245.86218 C 311.00000,233.99418 320.40800,224.36218 332.00000,224.36218 C 343.59200,224.36218 353.00000,233.99418 353.00000,245.86218 z "
         id="path2152" />
    </g>
    <g
       id="g2154"
       transform="matrix(0.144857, 0, 0, 0.097903, 7.16938, 61.9476)">
      <path
         transform="translate(-4, -6)"
         style="fill:#ffffff;fill-opacity:1.0000000;stroke:none;stroke-width:2.0000000;stroke-miterlimit:4.0000000;stroke-dashoffset:0.0000000;stroke-opacity:1.0000000"
         d="M 353.00000,245.86218 C 353.00000,257.73018 343.59200,267.36218 332.00000,267.36218 C 320.40800,267.36218 311.00000,257.73018 311.00000,245.86218 C 311.00000,233.99418 320.40800,224.36218 332.00000,224.36218 C 343.59200,224.36218 353.00000,233.99418 353.00000,245.86218 z "
         id="path2156" />
      <path
         transform="matrix(0.571429, 0, 0, 0.83721, 129.286, 34.5241)"
         style="fill:#b67870;fill-opacity:1.0000000;stroke:none;stroke-width:2.0000000;stroke-miterlimit:4.0000000;stroke-dashoffset:0.0000000;stroke-opacity:1.0000000"
         d="M 353.00000,245.86218 C 353.00000,257.73018 343.59200,267.36218 332.00000,267.36218 C 320.40800,267.36218 311.00000,257.73018 311.00000,245.86218 C 311.00000,233.99418 320.40800,224.36218 332.00000,224.36218 C 343.59200,224.36218 353.00000,233.99418 353.00000,245.86218 z "
         id="path2158" />
      <path
         transform="matrix(0.357143, 0, 0, 0.674419, 195.929, 76.0482)"
         style="fill:#000000;fill-opacity:1.0000000;stroke:none;stroke-width:2.0000000;stroke-miterlimit:4.0000000;stroke-dashoffset:0.0000000;stroke-opacity:1.0000000"
         d="M 353.00000,245.86218 C 353.00000,257.73018 343.59200,267.36218 332.00000,267.36218 C 320.40800,267.36218 311.00000,257.73018 311.00000,245.86218 C 311.00000,233.99418 320.40800,224.36218 332.00000,224.36218 C 343.59200,224.36218 353.00000,233.99418 353.00000,245.86218 z "
         id="path2160" />
    </g>
    <path
       style="fill:url(#linearGradient7487);fill-opacity:1.0000000;fill-rule:evenodd;stroke:none;stroke-width:1.0000000px;stroke-linecap:butt;stroke-linejoin:miter;stroke-opacity:1.0000000"
       d="M 56.801240,98.954840 C 58.649740,102.57701 63.701560,100.89805 68.529070,98.954840 C 63.205210,99.514500 59.536460,99.924060 56.801240,98.954840 z "
       id="path2162"
       sodipodi:nodetypes="ccc" />
    <path
       style="fill:#b30d95;fill-opacity:1.0000000;stroke:none;stroke-width:2.0000000;stroke-miterlimit:4.0000000;stroke-dashoffset:0.0000000;stroke-opacity:1.0000000"
       d="M 78.942550,122.60586 L 80.206140,122.72912 L 81.577500,137.24188 L 78.112310,137.70766 L 78.942550,122.60586 z "
       id="path2164"
       sodipodi:nodetypes="ccccc" />
    <path
       sodipodi:nodetypes="ccccccc"
       id="path2166"
       d="M 58.998680,86.896750 C 58.206780,88.183580 57.053780,90.299160 57.218040,91.271600 C 57.382310,92.244040 58.870420,92.034080 59.660380,92.594690 L 59.991230,92.116800 C 59.296540,91.623780 58.208300,92.108780 58.073240,91.309230 C 57.938190,90.509670 58.754320,88.394360 59.494950,87.190830 L 58.998680,86.896750 z "
       style="fill:#000000;fill-opacity:1.0000000;fill-rule:evenodd;stroke:none;stroke-width:1.0000000px;stroke-linecap:butt;stroke-linejoin:miter;stroke-opacity:1.0000000" />
    <path
       sodipodi:nodetypes="cccc"
       id="path2168"
       d="M 60.292940,94.549730 C 56.489390,94.927520 54.159520,97.850770 52.231570,99.970190 C 52.231570,99.970190 58.469070,96.513900 60.433240,96.584050 C 60.292940,96.093010 60.503390,95.461670 60.292940,94.549730 z "
       style="stroke-opacity:1.0000000;stroke-linejoin:miter;stroke-linecap:butt;stroke-width:1.0000000px;stroke:none;fill-rule:evenodd;fill-opacity:1.0000000;fill:#6d2b00" />
    <path
       sodipodi:nodetypes="cccc"
       id="path2170"
       d="M 61.161340,94.405360 C 64.543290,94.751480 71.006590,97.375110 71.307190,99.864780 C 71.307190,99.864780 63.421620,95.646930 61.568390,96.301500 C 61.555360,95.790980 61.233370,95.338490 61.161340,94.405360 z "
       style="stroke-opacity:1.0000000;stroke-linejoin:miter;stroke-linecap:butt;stroke-width:1.0000000px;stroke:none;fill-rule:evenodd;fill-opacity:1.0000000;fill:#6d2b00" />
    <path
       style="fill:url(#linearGradient7480);fill-opacity:1.0000000;fill-rule:evenodd;stroke:none;stroke-width:1.0000000px;stroke-linecap:butt;stroke-linejoin:miter;stroke-opacity:1.0000000"
       d="M 58.633050,108.39924 C 62.266330,119.62231 67.337120,129.34538 73.095400,137.94345 L 76.781050,137.83146 C 71.043310,128.62348 65.055570,118.22801 61.630330,107.02004 C 61.630330,107.02004 59.594250,107.64413 58.633050,108.39924 z "
       id="path2172"
       sodipodi:nodetypes="ccccc" />
    <path
       style="fill:url(#linearGradient7477);fill-opacity:1.0000000;fill-rule:evenodd;stroke:none;stroke-width:1.0000000px;stroke-linecap:butt;stroke-linejoin:miter;stroke-opacity:1.0000000"
       d="M 56.051070,104.88096 L 55.801070,115.13096 L 65.113570,109.44346 L 65.113570,110.88096 L 68.801070,111.19346 L 68.738570,109.25596 L 80.863570,114.69346 L 79.613570,102.63096 L 68.926070,108.06846 L 68.676070,106.25596 L 64.926070,106.00596 L 64.926070,107.94346 L 56.051070,104.88096 z "
       id="path2174"
       sodipodi:nodetypes="ccccccccccccc" />
    <path
       sodipodi:nodetypes="ccccc"
       id="path2176"
       d="M 55.856520,64.782100 L 55.319340,67.381780 C 62.986010,69.610940 73.227020,69.259020 82.081190,68.300690 C 82.062610,67.941720 81.731520,65.782100 81.731520,65.782100 C 73.210690,66.657100 62.314850,66.594600 55.856520,64.782100 z "
       style="fill:url(#linearGradient7474);fill-opacity:1.0000000;fill-rule:evenodd;stroke:none;stroke-width:1.0000000px;stroke-linecap:butt;stroke-linejoin:miter;stroke-opacity:1.0000000" />
    <path
       sodipodi:nodetypes="ccc"
       id="path2178"
       d="M 68.106520,66.344600 C 96.627350,70.177930 91.585690,52.948770 69.669020,58.719600 C 48.523180,51.261270 43.439850,68.552930 68.106520,66.344600 z "
       style="fill:url(#linearGradient7471);fill-opacity:1.0000000;fill-rule:evenodd;stroke:none;stroke-width:1.0000000px;stroke-linecap:butt;stroke-linejoin:miter;stroke-opacity:1.0000000" />
    <path
       transform="translate(-38.331, 1.5321)"
       d="M 110.81250 56.406250 A 3.7187500 1.6562500 0 1 1  103.37500,56.406250 A 3.7187500 1.6562500 0 1 1  110.81250 56.406250 z"
       sodipodi:ry="1.6562500"
       sodipodi:rx="3.7187500"
       sodipodi:cy="56.406250"
       sodipodi:cx="107.09375"
       id="path2180"
       style="fill:url(#linearGradient2286);fill-opacity:1.0000000;stroke:none;stroke-width:2.0000000;stroke-miterlimit:4.0000000;stroke-dashoffset:0.0000000;stroke-opacity:1.0000000"
       sodipodi:type="arc" />
    <path
       style="fill:url(#linearGradient7467);fill-opacity:1.0000000;stroke:none;stroke-width:2.0000000;stroke-miterlimit:4.0000000;stroke-dashoffset:0.0000000;stroke-opacity:1.0000000"
       d="M 68.765240,56.293750 C 66.954780,56.293750 65.627470,56.905440 65.295990,57.668750 C 52.414780,54.947440 47.713880,62.153070 55.763380,65.231250 L 55.357070,67.293750 C 52.358730,70.082760 50.964560,73.572350 49.637500,75.950000 C 50.388830,76.213610 51.858310,76.447260 53.200510,76.668750 C 52.133130,79.380130 51.481510,82.365300 51.481510,85.575000 C 51.481510,90.045900 52.665710,94.160330 54.638220,97.543750 C 53.788480,98.359750 52.926690,99.217270 52.231620,99.981250 C 52.231620,99.981250 53.689380,99.202840 55.232050,98.450000 C 58.259610,103.07079 62.829410,106.10185 68.015130,106.23125 L 64.920940,106.01250 L 64.920940,106.73125 L 64.858430,106.73125 C 63.942210,106.73125 63.030930,106.83022 62.170550,107.01250 L 56.044670,104.88750 L 55.919650,110.41875 C 53.590240,112.72254 52.137860,115.90036 52.137860,119.45000 L 52.137860,134.38750 C 57.095490,136.84439 65.031910,137.99902 73.078360,137.88750 C 73.091080,137.90652 73.096880,137.93099 73.109610,137.95000 L 76.797640,137.85625 C 76.747660,137.77604 76.691400,137.68664 76.641370,137.60625 C 77.136070,137.57443 77.619040,137.52345 78.110330,137.48125 L 78.110330,137.73125 L 81.579580,137.26250 L 81.579580,137.23125 C 85.714690,136.65248 89.601540,135.77077 92.737430,134.38750 L 92.737430,119.45000 C 92.737420,112.41160 87.083380,106.74836 80.048110,106.73125 L 79.610550,102.63750 L 71.578150,106.73125 L 68.733990,106.73125 L 68.671480,106.26250 L 68.452700,106.26250 C 76.379010,106.20918 82.970470,99.446260 84.736280,90.387500 C 87.838500,90.549880 90.080690,89.725900 93.237500,88.700000 C 87.753910,86.979360 88.503460,75.381740 82.017140,68.325000 C 82.037130,68.322840 82.059670,68.327160 82.079650,68.325000 C 82.064290,68.028140 81.877180,66.751190 81.798360,66.231250 C 92.789900,63.845920 87.336970,55.390180 72.109470,58.325000 C 72.195980,58.184930 72.484530,58.102260 72.484530,57.950000 C 72.484530,57.035750 70.818290,56.293750 68.765240,56.293750 z "
       id="path2182" />
  </g>
  <metadata
     id="metadata89">
    <rdf:RDF>
      <cc:Work
         rdf:about="">
        <dc:title>card</dc:title>
        <dc:description />
        <dc:subject>
          <rdf:Bag>
            <rdf:li>ornamental</rdf:li>
            <rdf:li>card</rdf:li>
          </rdf:Bag>
        </dc:subject>
        <dc:publisher>
          <cc:Agent>
            <dc:title />
          </cc:Agent>
        </dc:publisher>
        <dc:creator>
          <cc:Agent>
            <dc:title>Nicu Buculei</dc:title>
          </cc:Agent>
        </dc:creator>
        <dc:rights>
          <cc:Agent>
            <dc:title>Nicu Buculei</dc:title>
          </cc:Agent>
        </dc:rights>
        <dc:date />
        <dc:format>image/svg+xml</dc:format>
        <dc:type
           rdf:resource="http://purl.org/dc/dcmitype/StillImage" />
        <cc:license
           rdf:resource="http://web.resource.org/cc/PublicDomain" />
        <dc:language>en</dc:language>
      </cc:Work>
      <cc:License
         rdf:about="http://web.resource.org/cc/PublicDomain">
        <cc:permits
           rdf:resource="http://web.resource.org/cc/Reproduction" />
        <cc:permits
           rdf:resource="http://web.resource.org/cc/Distribution" />
        <cc:permits
           rdf:resource="http://web.resource.org/cc/DerivativeWorks" />
      </cc:License>
    </rdf:RDF>
  </metadata>
</svg>
