<?xml version="1.0" encoding="UTF-8" standalone="no"?>
<!-- Created with Inkscape (http://www.inkscape.org/) -->

<svg
   xmlns:dc="http://purl.org/dc/elements/1.1/"
   xmlns:cc="http://creativecommons.org/ns#"
   xmlns:rdf="http://www.w3.org/1999/02/22-rdf-syntax-ns#"
   xmlns:svg="http://www.w3.org/2000/svg"
   xmlns="http://www.w3.org/2000/svg"
   xmlns:xlink="http://www.w3.org/1999/xlink"
   xmlns:sodipodi="http://sodipodi.sourceforge.net/DTD/sodipodi-0.dtd"
   xmlns:inkscape="http://www.inkscape.org/namespaces/inkscape"
   sodipodi:docname="nicubunu_Ornamental_deck_6_of_spades.svg"
   inkscape:version="0.48.0 r9654"
   sodipodi:version="0.32"
   version="1.0"
   x="0.0000000"
   y="0.0000000"
   width="140.00000"
   height="190.00000"
   id="svg2">
  <sodipodi:namedview
     inkscape:current-layer="layer1"
     inkscape:window-y="26"
     inkscape:window-x="0"
     inkscape:cy="95"
     inkscape:cx="70"
     inkscape:zoom="1"
     inkscape:window-height="791"
     inkscape:window-width="1152"
     inkscape:pageshadow="2"
     inkscape:pageopacity="0.0"
     borderopacity="1.0"
     bordercolor="#666666"
     pagecolor="#ffffff"
     id="base"
     showgrid="false"
     inkscape:window-maximized="0" />
  <defs
     id="defs3">
    <linearGradient
       id="linearGradient2060">
      <stop
         style="stop-color:#ebf0d0;stop-opacity:1.0000000;"
         offset="0.0000000"
         id="stop2062" />
      <stop
         style="stop-color:#ffffeb;stop-opacity:1.0000000;"
         offset="1.0000000"
         id="stop2064" />
    </linearGradient>
    <linearGradient
       x1="2.0000000"
       y1="63.099518"
       x2="109.00000"
       y2="128.69501"
       id="linearGradient4853"
       xlink:href="#linearGradient2060"
       gradientUnits="userSpaceOnUse"
       gradientTransform="translate(0, -1)" />
    <linearGradient
       inkscape:collect="always"
       xlink:href="#linearGradient2060"
       id="linearGradient34009"
       gradientUnits="userSpaceOnUse"
       gradientTransform="translate(0,-1)"
       x1="2.0000000"
       y1="63.099518"
       x2="109.00000"
       y2="128.69501" />
  </defs>
  <g
     id="layer1"
     inkscape:groupmode="layer"
     inkscape:label="Layer 1">
    <g
       transform="translate(152.037, 99.5671)"
       id="g5202">
      <g
         transform="translate(351.5, 184.5)"
         id="g5581" />
    </g>
  </g>
  <g
     transform="matrix(0.593136, 0, 0, 0.238935, -103.053, 9.25599)"
     style="stroke-opacity:1.0000000;stroke:none"
     id="g1729">
    <path
       sodipodi:nodetypes="cccccccccc"
       d="M 260.17615,149.59720 C 255.34000,168.83832 240.50022,201.60363 249.90118,211.71962 C 255.60767,216.37640 258.32331,206.84375 259.47349,200.53259 L 259.70387,200.53259 L 255.91411,232.36832 L 264.69161,232.27457 C 264.69161,232.27457 260.91045,201.67223 260.90185,200.50134 L 260.99400,200.50134 C 261.92301,205.65839 265.44822,216.33425 269.32607,212.26849 C 280.66519,200.87117 263.96806,168.43896 260.17615,149.59720 z "
       style="fill:#000000;fill-opacity:1.0000000;fill-rule:evenodd;stroke-width:0.75889903;stroke-linecap:butt;stroke-linejoin:round;stroke-miterlimit:4.0000000"
       id="path1731" />
  </g>
  <g
     transform="matrix(-0.593136, 0, 0, -0.238935, 207.413, 177.521)"
     style="stroke-opacity:1.0000000;stroke:none"
     id="g1753">
    <path
       sodipodi:nodetypes="cccccccccc"
       d="M 260.17615,149.59720 C 255.34000,168.83832 240.50022,201.60363 249.90118,211.71962 C 255.60767,216.37640 258.32331,206.84375 259.47349,200.53259 L 259.70387,200.53259 L 255.91411,232.36832 L 264.69161,232.27457 C 264.69161,232.27457 260.91045,201.67223 260.90185,200.50134 L 260.99400,200.50134 C 261.92301,205.65839 265.44822,216.33425 269.32607,212.26849 C 280.66519,200.87117 263.96806,168.43896 260.17615,149.59720 z "
       style="fill:#000000;fill-opacity:1.0000000;fill-rule:evenodd;stroke-width:0.75889903;stroke-linecap:butt;stroke-linejoin:round;stroke-miterlimit:4.0000000"
       id="path1755" />
  </g>
  <g
     transform="translate(333.5, 184.5)"
     id="g2352" />
  <g
     transform="matrix(0.593136, 0, 0, 0.238935, -67.053, 9.25599)"
     style="stroke-opacity:1.0000000;stroke:none"
     id="g3456">
    <path
       sodipodi:nodetypes="cccccccccc"
       d="M 260.17615,149.59720 C 255.34000,168.83832 240.50022,201.60363 249.90118,211.71962 C 255.60767,216.37640 258.32331,206.84375 259.47349,200.53259 L 259.70387,200.53259 L 255.91411,232.36832 L 264.69161,232.27457 C 264.69161,232.27457 260.91045,201.67223 260.90185,200.50134 L 260.99400,200.50134 C 261.92301,205.65839 265.44822,216.33425 269.32607,212.26849 C 280.66519,200.87117 263.96806,168.43896 260.17615,149.59720 z "
       style="fill:#000000;fill-opacity:1.0000000;fill-rule:evenodd;stroke-width:0.75889903;stroke-linecap:butt;stroke-linejoin:round;stroke-miterlimit:4.0000000"
       id="path3458" />
  </g>
  <g
     transform="matrix(-0.593136, 0, 0, -0.238935, 242.413, 177.521)"
     style="stroke-opacity:1.0000000;stroke:none"
     id="g3460">
    <path
       sodipodi:nodetypes="cccccccccc"
       d="M 260.17615,149.59720 C 255.34000,168.83832 240.50022,201.60363 249.90118,211.71962 C 255.60767,216.37640 258.32331,206.84375 259.47349,200.53259 L 259.70387,200.53259 L 255.91411,232.36832 L 264.69161,232.27457 C 264.69161,232.27457 260.91045,201.67223 260.90185,200.50134 L 260.99400,200.50134 C 261.92301,205.65839 265.44822,216.33425 269.32607,212.26849 C 280.66519,200.87117 263.96806,168.43896 260.17615,149.59720 z "
       style="fill:#000000;fill-opacity:1.0000000;fill-rule:evenodd;stroke-width:0.75889903;stroke-linecap:butt;stroke-linejoin:round;stroke-miterlimit:4.0000000"
       id="path3462" />
  </g>
  <path
     sodipodi:nodetypes="cccccccccc"
     d="M 20.644472,48.665001 C 15.720144,56.489664 0.60980588,69.814120 10.182168,73.927926 C 15.992697,75.821668 18.757850,71.945088 19.929003,69.378567 L 20.163576,69.378567 L 16.304721,82.325000 L 25.242256,82.286874 C 25.242256,82.286874 21.392161,69.842017 21.383401,69.365862 L 21.477232,69.365862 C 22.423183,71.463045 26.012655,75.804526 29.961213,74.151132 C 41.507068,69.516255 24.505518,56.327258 20.644472,48.665001 z "
     style="fill:#000000;fill-opacity:1.0000000;fill-rule:evenodd;stroke:none;stroke-width:0.75889903;stroke-linecap:butt;stroke-linejoin:round;stroke-miterlimit:4.0000000;stroke-opacity:1.0000000"
     id="path4574" />
  <path
     d="M 21.068686,27.429128 C 19.950041,27.429139 19.108310,27.871202 18.543473,28.755305 C 17.989684,29.626036 17.712799,30.938818 17.712808,32.693640 C 17.712799,34.448485 17.989684,35.767965 18.543473,36.652068 C 19.108310,37.522799 19.950041,37.958153 21.068686,37.958153 C 22.198368,37.958153 23.040109,37.522799 23.593898,36.652068 C 24.158726,35.767965 24.441158,34.448485 24.441167,32.693640 C 24.441158,30.938818 24.158726,29.626036 23.593898,28.755305 C 23.040109,27.871202 22.198368,27.429139 21.068686,27.429128 M 28.976584,13.022046 L 28.976584,18.567868 C 27.924390,17.965085 26.933136,17.523023 26.002813,17.241691 C 25.072454,16.947008 24.164263,16.799661 23.278241,16.799639 C 21.373250,16.799661 19.889129,17.442652 18.825896,18.728621 C 17.762636,20.001229 17.142406,21.896723 16.965214,24.415093 C 17.696186,23.758718 18.488080,23.269783 19.340904,22.948266 C 20.193702,22.613387 21.124043,22.445947 22.131927,22.445925 C 24.668206,22.445947 26.711626,23.343457 28.262216,25.138465 C 29.823835,26.933507 30.604662,29.284448 30.604681,32.191299 C 30.604662,35.406273 29.735234,37.984943 27.996405,39.927320 C 26.257531,41.856303 23.926141,42.820788 21.002226,42.820788 C 17.779249,42.820788 15.281733,41.508017 13.509661,38.882453 C 11.748654,36.243505 10.868151,32.506108 10.868151,27.670252 C 10.868151,22.713862 11.898167,18.822410 13.958219,15.995896 C 16.029327,13.156031 18.864650,11.736087 22.464197,11.736054 C 23.604955,11.736087 24.712506,11.843249 25.786841,12.057550 C 26.861148,12.271916 27.924390,12.593412 28.976584,13.022046"
     style="font-size:37.418446;font-style:normal;font-variant:normal;font-weight:bold;font-stretch:normal;fill:#000000;fill-opacity:1.0000000;stroke:none;stroke-width:1.0000000px;stroke-linecap:butt;stroke-linejoin:miter;stroke-opacity:1.0000000;font-family:Bitstream Vera Sans;text-anchor:start;writing-mode:lr-tb"
     id="text2666" />
  <path
     sodipodi:nodetypes="cccccccccc"
     d="M 118.03552,140.00000 C 122.95985,132.17534 138.07019,118.85088 128.49782,114.73708 C 122.68730,112.84334 119.92215,116.71992 118.75099,119.28644 L 118.51642,119.28644 L 122.37528,106.34000 L 113.43774,106.37813 C 113.43774,106.37813 117.28784,118.82299 117.29660,119.29914 L 117.20276,119.29914 C 116.25681,117.20196 112.66734,112.86048 108.71878,114.51387 C 97.172927,119.14875 114.17448,132.33775 118.03552,140.00000 z "
     style="fill:#000000;fill-opacity:1.0000000;fill-rule:evenodd;stroke:none;stroke-width:0.75889903;stroke-linecap:butt;stroke-linejoin:round;stroke-miterlimit:4.0000000;stroke-opacity:1.0000000"
     id="path18214" />
  <path
     d="M 117.61151,161.73699 C 118.73016,161.73697 119.57189,161.29492 120.13673,160.41081 C 120.69051,159.54008 120.96740,158.22730 120.96739,156.47248 C 120.96740,154.71763 120.69051,153.39816 120.13673,152.51405 C 119.57189,151.64332 118.73016,151.20796 117.61151,151.20796 C 116.48183,151.20796 115.64009,151.64332 115.08630,152.51405 C 114.52147,153.39816 114.23904,154.71763 114.23903,156.47248 C 114.23904,158.22730 114.52147,159.54008 115.08630,160.41081 C 115.64009,161.29492 116.48183,161.73697 117.61151,161.73699 M 109.70361,176.14407 L 109.70361,170.59825 C 110.75581,171.20103 111.74706,171.64309 112.67738,171.92442 C 113.60774,172.21910 114.51593,172.36646 115.40196,172.36648 C 117.30696,172.36646 118.79107,171.72346 119.85430,170.43750 C 120.91756,169.16489 121.53779,167.26940 121.71498,164.75102 C 120.98401,165.40739 120.19212,165.89634 119.33929,166.21785 C 118.48649,166.55273 117.55615,166.72017 116.54827,166.72019 C 114.01200,166.72017 111.96857,165.82266 110.41798,164.02766 C 108.85636,162.23262 108.07553,159.88167 108.07552,156.97482 C 108.07553,153.75984 108.94496,151.18117 110.68379,149.23880 C 112.42267,147.30981 114.75406,146.34532 117.67797,146.34532 C 120.90095,146.34532 123.39846,147.65810 125.17054,150.28366 C 126.93154,152.92261 127.81205,156.66001 127.81205,161.49587 C 127.81205,166.45226 126.78203,170.34371 124.72199,173.17022 C 122.65087,176.01009 119.81555,177.43003 116.21600,177.43006 C 115.07524,177.43003 113.96769,177.32286 112.89336,177.10856 C 111.81905,176.89420 110.75581,176.57270 109.70361,176.14407"
     style="font-size:37.418446;font-style:normal;font-variant:normal;font-weight:bold;font-stretch:normal;fill:#000000;fill-opacity:1.0000000;stroke:none;stroke-width:1.0000000px;stroke-linecap:butt;stroke-linejoin:miter;stroke-opacity:1.0000000;font-family:Bitstream Vera Sans;text-anchor:start;writing-mode:lr-tb"
     id="text18216" />
  <g
     transform="matrix(0.593136, 0, 0, 0.238935, -103.053, 45.256)"
     style="stroke-opacity:1.0000000;stroke:none"
     id="g3957">
    <path
       sodipodi:nodetypes="cccccccccc"
       d="M 260.17615,149.59720 C 255.34000,168.83832 240.50022,201.60363 249.90118,211.71962 C 255.60767,216.37640 258.32331,206.84375 259.47349,200.53259 L 259.70387,200.53259 L 255.91411,232.36832 L 264.69161,232.27457 C 264.69161,232.27457 260.91045,201.67223 260.90185,200.50134 L 260.99400,200.50134 C 261.92301,205.65839 265.44822,216.33425 269.32607,212.26849 C 280.66519,200.87117 263.96806,168.43896 260.17615,149.59720 z "
       style="fill:#000000;fill-opacity:1.0000000;fill-rule:evenodd;stroke-width:0.75889903;stroke-linecap:butt;stroke-linejoin:round;stroke-miterlimit:4.0000000"
       id="path3959" />
  </g>
  <g
     transform="matrix(-0.593136, 0, 0, -0.238935, 241.053, 136.521)"
     style="stroke-opacity:1.0000000;stroke:none"
     id="g4593">
    <path
       sodipodi:nodetypes="cccccccccc"
       d="M 260.17615,149.59720 C 255.34000,168.83832 240.50022,201.60363 249.90118,211.71962 C 255.60767,216.37640 258.32331,206.84375 259.47349,200.53259 L 259.70387,200.53259 L 255.91411,232.36832 L 264.69161,232.27457 C 264.69161,232.27457 260.91045,201.67223 260.90185,200.50134 L 260.99400,200.50134 C 261.92301,205.65839 265.44822,216.33425 269.32607,212.26849 C 280.66519,200.87117 263.96806,168.43896 260.17615,149.59720 z "
       style="fill:#000000;fill-opacity:1.0000000;fill-rule:evenodd;stroke-width:0.75889903;stroke-linecap:butt;stroke-linejoin:round;stroke-miterlimit:4.0000000"
       id="path4595" />
  </g>
  <metadata
     id="metadata37">
    <rdf:RDF>
      <cc:Work
         rdf:about="">
        <dc:title>card</dc:title>
        <dc:description />
        <dc:subject>
          <rdf:Bag>
            <rdf:li>ornamental</rdf:li>
            <rdf:li>card</rdf:li>
          </rdf:Bag>
        </dc:subject>
        <dc:publisher>
          <cc:Agent>
            <dc:title />
          </cc:Agent>
        </dc:publisher>
        <dc:creator>
          <cc:Agent>
            <dc:title>Nicu Buculei</dc:title>
          </cc:Agent>
        </dc:creator>
        <dc:rights>
          <cc:Agent>
            <dc:title>Nicu Buculei</dc:title>
          </cc:Agent>
        </dc:rights>
        <dc:date />
        <dc:format>image/svg+xml</dc:format>
        <dc:type
           rdf:resource="http://purl.org/dc/dcmitype/StillImage" />
        <cc:license
           rdf:resource="http://web.resource.org/cc/PublicDomain" />
        <dc:language>en</dc:language>
      </cc:Work>
      <cc:License
         rdf:about="http://web.resource.org/cc/PublicDomain">
        <cc:permits
           rdf:resource="http://web.resource.org/cc/Reproduction" />
        <cc:permits
           rdf:resource="http://web.resource.org/cc/Distribution" />
        <cc:permits
           rdf:resource="http://web.resource.org/cc/DerivativeWorks" />
      </cc:License>
    </rdf:RDF>
  </metadata>
</svg>
