<?xml version="1.0" encoding="UTF-8" standalone="no"?>
<!-- Created with Inkscape (http://www.inkscape.org/) -->

<svg
   xmlns:dc="http://purl.org/dc/elements/1.1/"
   xmlns:cc="http://creativecommons.org/ns#"
   xmlns:rdf="http://www.w3.org/1999/02/22-rdf-syntax-ns#"
   xmlns:svg="http://www.w3.org/2000/svg"
   xmlns="http://www.w3.org/2000/svg"
   xmlns:xlink="http://www.w3.org/1999/xlink"
   xmlns:sodipodi="http://sodipodi.sourceforge.net/DTD/sodipodi-0.dtd"
   xmlns:inkscape="http://www.inkscape.org/namespaces/inkscape"
   id="svg2"
   height="190.00000"
   width="140.00000"
   y="0.0000000"
   x="0.0000000"
   version="1.0"
   sodipodi:version="0.32"
   inkscape:version="0.48.0 r9654"
   sodipodi:docname="nicubunu_Ornamental_deck_Ace_of_spades.svg">
  <sodipodi:namedview
     id="base"
     pagecolor="#ffffff"
     bordercolor="#666666"
     borderopacity="1.0"
     inkscape:pageopacity="0.0"
     inkscape:pageshadow="2"
     inkscape:window-width="1152"
     inkscape:window-height="791"
     inkscape:zoom="4"
     inkscape:cx="95.475703"
     inkscape:cy="118.70846"
     inkscape:window-x="0"
     inkscape:window-y="26"
     inkscape:current-layer="svg2"
     showgrid="false"
     inkscape:window-maximized="0" />
  <defs
     id="defs3">
    <linearGradient
       id="linearGradient2060">
      <stop
         id="stop2062"
         offset="0.0000000"
         style="stop-color:#ebf0d0;stop-opacity:1.0000000;" />
      <stop
         id="stop2064"
         offset="1.0000000"
         style="stop-color:#ffffeb;stop-opacity:1.0000000;" />
    </linearGradient>
    <linearGradient
       gradientTransform="translate(0, -1)"
       gradientUnits="userSpaceOnUse"
       xlink:href="#linearGradient2060"
       id="linearGradient4853"
       y2="128.69501"
       x2="109.00000"
       y1="63.099518"
       x1="2.0000000" />
    <linearGradient
       inkscape:collect="always"
       xlink:href="#linearGradient2060"
       id="linearGradient36448"
       gradientUnits="userSpaceOnUse"
       gradientTransform="translate(0, -1)"
       x1="2.0000000"
       y1="63.099518"
       x2="109.00000"
       y2="128.69501" />
  </defs>
  <g
     id="layer1"
     inkscape:groupmode="layer"
     inkscape:label="Layer 1">
    <g
       transform="translate(152.037, 99.5671)"
       id="g5202">
      <g
         transform="translate(351.5, 184.5)"
         id="g5581" />
    </g>
  </g>
  <g
     id="g1600"
     transform="matrix(1.00001, 0, 0, 0.400814, -239.327, -10.8115)">
    <path
       sodipodi:nodetypes="cccccccccc"
       id="path1561"
       style="fill:#000000;fill-opacity:1.0000000;fill-rule:evenodd;stroke:none;stroke-width:0.75889903;stroke-linecap:butt;stroke-linejoin:round;stroke-miterlimit:4.0000000;stroke-opacity:1.0000000"
       d="M 260.41906,148.38922 C 255.49479,167.91115 240.38462,201.15464 249.95687,211.41827 C 255.76734,216.14301 258.53246,206.47124 259.70360,200.06797 L 259.93818,200.06797 L 256.07936,232.36832 L 265.01680,232.27320 C 265.01680,232.27320 261.16674,201.22424 261.15798,200.03627 L 261.25181,200.03627 C 262.19775,205.26858 265.78719,216.10024 269.73570,211.97515 C 281.28143,200.41149 264.28006,167.50596 260.41906,148.38922 z " />
  </g>
  <path
     id="text1481"
     style="font-size:37.418766;font-style:normal;font-variant:normal;font-weight:bold;font-stretch:normal;fill:#000000;fill-opacity:1.0000000;stroke:none;stroke-width:1.0000000px;stroke-linecap:butt;stroke-linejoin:miter;stroke-opacity:1.0000000;font-family:Bitstream Vera Sans;text-anchor:start;writing-mode:lr-tb"
     d="M 25.078906,36.774534 L 15.077649,36.774534 L 13.499377,42.240029 L 7.0699976,42.240029 L 16.257199,12.240088 L 23.882742,12.240088 L 33.069943,42.240029 L 26.640564,42.240029 L 25.078906,36.774534 M 16.672534,31.208571 L 23.467407,31.208571 L 20.078278,19.272894 L 16.672534,31.208571" />
  <g
     id="g19507"
     transform="matrix(-1.00001, 0, 0, -0.400814, 378.017, 199.477)">
    <path
       sodipodi:nodetypes="cccccccccc"
       id="path19509"
       style="fill:#000000;fill-opacity:1.0000000;fill-rule:evenodd;stroke:none;stroke-width:0.75889903;stroke-linecap:butt;stroke-linejoin:round;stroke-miterlimit:4.0000000;stroke-opacity:1.0000000"
       d="M 260.41906,148.38922 C 255.49479,167.91115 240.38462,201.15464 249.95687,211.41827 C 255.76734,216.14301 258.53246,206.47124 259.70360,200.06797 L 259.93818,200.06797 L 256.07936,232.36832 L 265.01680,232.27320 C 265.01680,232.27320 261.16674,201.22424 261.15798,200.03627 L 261.25181,200.03627 C 262.19775,205.26858 265.78719,216.10024 269.73570,211.97515 C 281.28143,200.41149 264.28006,167.50596 260.41906,148.38922 z " />
  </g>
  <path
     id="text19511"
     style="font-size:37.418766;font-style:normal;font-variant:normal;font-weight:bold;font-stretch:normal;fill:#000000;fill-opacity:1.0000000;stroke:none;stroke-width:1.0000000px;stroke-linecap:butt;stroke-linejoin:miter;stroke-opacity:1.0000000;font-family:Bitstream Vera Sans;text-anchor:start;writing-mode:lr-tb"
     d="M 113.61105,152.09552 L 123.61231,152.09552 L 125.19057,146.63002 L 131.61996,146.63002 L 122.43276,176.62997 L 114.80721,176.62997 L 105.62001,146.63002 L 112.04939,146.63002 L 113.61105,152.09552 M 122.01742,157.66148 L 115.22255,157.66148 L 118.61168,169.59716 L 122.01742,157.66148" />
  <path
     sodipodi:nodetypes="cccccc"
     id="path4163"
     d="M 69.78125,59.0625 C 59.20633,75.876467 26.755997,104.50383 47.3125,113.34375 71.933983,114.85391 73.502398,87.601617 60.46875,131.375 l 19.1875,-0.0625 c -15.601095,-49.372286 -6.288802,-11.50546 10.125,-17.5 24.79457,-9.95962 -11.708464,-38.28502 -20,-54.75 z"
     style="fill:#000000;fill-opacity:1;fill-rule:evenodd;stroke:none"
     inkscape:connector-curvature="0" />
  <metadata
     id="metadata27">
    <rdf:RDF>
      <cc:Work
         rdf:about="">
        <dc:title>card</dc:title>
        <dc:description />
        <dc:subject>
          <rdf:Bag>
            <rdf:li>ornamental</rdf:li>
            <rdf:li>card</rdf:li>
          </rdf:Bag>
        </dc:subject>
        <dc:publisher>
          <cc:Agent>
            <dc:title />
          </cc:Agent>
        </dc:publisher>
        <dc:creator>
          <cc:Agent>
            <dc:title>Nicu Buculei</dc:title>
          </cc:Agent>
        </dc:creator>
        <dc:rights>
          <cc:Agent>
            <dc:title>Nicu Buculei</dc:title>
          </cc:Agent>
        </dc:rights>
        <dc:date />
        <dc:format>image/svg+xml</dc:format>
        <dc:type
           rdf:resource="http://purl.org/dc/dcmitype/StillImage" />
        <cc:license
           rdf:resource="http://web.resource.org/cc/PublicDomain" />
        <dc:language>en</dc:language>
      </cc:Work>
      <cc:License
         rdf:about="http://web.resource.org/cc/PublicDomain">
        <cc:permits
           rdf:resource="http://web.resource.org/cc/Reproduction" />
        <cc:permits
           rdf:resource="http://web.resource.org/cc/Distribution" />
        <cc:permits
           rdf:resource="http://web.resource.org/cc/DerivativeWorks" />
      </cc:License>
    </rdf:RDF>
  </metadata>
</svg>
