<?xml version="1.0" encoding="UTF-8" standalone="no"?>
<!-- Created with Inkscape (http://www.inkscape.org/) -->

<svg
   xmlns:dc="http://purl.org/dc/elements/1.1/"
   xmlns:cc="http://creativecommons.org/ns#"
   xmlns:rdf="http://www.w3.org/1999/02/22-rdf-syntax-ns#"
   xmlns:svg="http://www.w3.org/2000/svg"
   xmlns="http://www.w3.org/2000/svg"
   xmlns:xlink="http://www.w3.org/1999/xlink"
   xmlns:sodipodi="http://sodipodi.sourceforge.net/DTD/sodipodi-0.dtd"
   xmlns:inkscape="http://www.inkscape.org/namespaces/inkscape"
   id="svg2"
   height="190.00000"
   width="140.00000"
   y="0.0000000"
   x="0.0000000"
   version="1.0"
   sodipodi:version="0.32"
   inkscape:version="0.48.0 r9654"
   sodipodi:docname="nicubunu_Ornamental_deck_10_of_hearts.svg">
  <sodipodi:namedview
     id="base"
     pagecolor="#ffffff"
     bordercolor="#666666"
     borderopacity="1.0"
     inkscape:pageopacity="0.0"
     inkscape:pageshadow="2"
     inkscape:window-width="1152"
     inkscape:window-height="791"
     inkscape:zoom="1.9105263"
     inkscape:cx="122.70048"
     inkscape:cy="107.58661"
     inkscape:window-x="0"
     inkscape:window-y="26"
     inkscape:current-layer="layer1"
     showgrid="false"
     inkscape:window-maximized="0" />
  <defs
     id="defs3">
    <linearGradient
       id="linearGradient2060">
      <stop
         id="stop2062"
         offset="0.0000000"
         style="stop-color:#ebf0d0;stop-opacity:1.0000000;" />
      <stop
         id="stop2064"
         offset="1.0000000"
         style="stop-color:#ffffeb;stop-opacity:1.0000000;" />
    </linearGradient>
    <linearGradient
       gradientTransform="translate(0, -1)"
       gradientUnits="userSpaceOnUse"
       xlink:href="#linearGradient2060"
       id="linearGradient4853"
       y2="128.69501"
       x2="109.00000"
       y1="63.099518"
       x1="2.0000000" />
    <linearGradient
       y2="128.69501"
       x2="109.00000"
       y1="63.099518"
       x1="2.0000000"
       gradientTransform="translate(0,-1)"
       gradientUnits="userSpaceOnUse"
       id="linearGradient19161"
       xlink:href="#linearGradient2060"
       inkscape:collect="always" />
  </defs>
  <g
     inkscape:label="Layer 1"
     inkscape:groupmode="layer"
     id="layer1">
    <g
       id="g19157"
       transform="translate(152.037, 99.5671)">
      <g
         id="g19159"
         transform="translate(351.5, 184.5)" />
    </g>
  </g>
  <path
     id="text1386"
     style="font-size:37.418476;font-style:normal;font-variant:normal;font-weight:bold;font-stretch:normal;fill:#ff0000;fill-opacity:1.0000000;stroke:none;stroke-width:1.0000000px;stroke-linecap:butt;stroke-linejoin:miter;stroke-opacity:1.0000000;font-family:Bitstream Vera Sans;text-anchor:start;writing-mode:lr-tb"
     d="M 11.677030,42.368220 L 11.677030,18.778130 L 6.4400000,18.709360 L 6.6925800,15.086640 L 11.647010,11.998110 L 17.139230,11.998110 L 17.139230,42.368220 M 30.572790,27.146430 C 30.572770,23.395650 30.307580,20.756690 29.777370,19.229560 C 29.257180,17.689070 28.376870,16.918820 27.136330,16.918790 C 25.895860,16.918820 25.010530,17.689070 24.480300,19.229560 C 23.950130,20.756690 23.685010,23.395650 23.685020,27.146430 C 23.685010,30.937430 23.950130,33.609860 24.480300,35.163760 C 25.010530,36.717670 25.895860,37.494620 27.136330,37.494620 C 28.366840,37.494620 29.247200,36.717670 29.777370,35.163760 C 30.307580,33.609860 30.572770,30.937430 30.572790,27.146430 M 36.350000,27.206710 C 36.349970,32.176530 35.549700,36.014400 33.949060,38.720320 C 32.348460,41.412860 30.077490,42.759130 27.136330,42.759130 C 24.185190,42.759130 21.909330,41.412860 20.308700,38.720320 C 18.708070,36.014400 17.907820,32.176530 17.907820,27.206710 C 17.907820,22.223510 18.708070,18.385650 20.308700,15.693090 C 21.909330,12.987180 24.185190,11.634210 27.136330,11.634190 C 30.077490,11.634210 32.348460,12.987180 33.949060,15.693090 C 35.549700,18.385650 36.349970,22.223510 36.350000,27.206710" />
  <g
     id="g1390"
     style="fill:#ff0000;fill-opacity:1.0000000"
     transform="matrix(0.286388, 0, 0, 0.388772, -29.6083, -9.47241)">
    <path
       id="path1392"
       style="fill-rule:evenodd;stroke:none;stroke-width:3.4289415;stroke-linecap:butt;stroke-linejoin:round;stroke-miterlimit:4.0000000;stroke-opacity:1.0000000"
       transform="matrix(1.10538, 0, 0, 1.07964, -12.0141, -18.8673)"
       d="M 147.20601,156.41679 C 144.67035,156.42954 141.88421,156.89888 138.79976,157.94804 C 105.17650,177.48492 150.50459,208.98936 169.64351,236.04179 L 170.19602,236.18010 C 191.22900,206.61098 231.26801,174.07246 200.67476,157.94804 C 176.43799,149.70401 169.96344,177.14611 169.73726,178.13554 C 169.53987,177.27202 164.59485,156.32936 147.20601,156.41679 z " />
  </g>
  <path
     id="path12191"
     style="font-size:37.418476;font-style:normal;font-variant:normal;font-weight:bold;font-stretch:normal;fill:#ff0000;fill-opacity:1.0000000;stroke:none;stroke-width:1.0000000px;stroke-linecap:butt;stroke-linejoin:miter;stroke-opacity:1.0000000;font-family:Bitstream Vera Sans;text-anchor:start;writing-mode:lr-tb"
     d="M 127.18847,146.63178 L 127.18847,170.22187 L 132.42550,170.29064 L 132.17292,173.91336 L 127.21849,177.00189 L 121.72627,177.00189 L 121.72627,146.63178 M 108.29271,161.85357 C 108.29273,165.60435 108.55792,168.24331 109.08813,169.77044 C 109.60832,171.31093 110.48863,172.08118 111.72917,172.08121 C 112.96964,172.08118 113.85497,171.31093 114.38520,169.77044 C 114.91537,168.24331 115.18049,165.60435 115.18048,161.85357 C 115.18049,158.06257 114.91537,155.39014 114.38520,153.83624 C 113.85497,152.28233 112.96964,151.50538 111.72917,151.50538 C 110.49866,151.50538 109.61830,152.28233 109.08813,153.83624 C 108.55792,155.39014 108.29273,158.06257 108.29271,161.85357 M 102.51550,161.79329 C 102.51553,156.82347 103.31580,152.98560 104.91644,150.27968 C 106.51704,147.58714 108.78801,146.24087 111.72917,146.24087 C 114.68031,146.24087 116.95617,147.58714 118.55680,150.27968 C 120.15743,152.98560 120.95768,156.82347 120.95768,161.79329 C 120.95768,166.77649 120.15743,170.61435 118.55680,173.30691 C 116.95617,176.01282 114.68031,177.36579 111.72917,177.36581 C 108.78801,177.36579 106.51704,176.01282 104.91644,173.30691 C 103.31580,170.61435 102.51553,166.77649 102.51550,161.79329" />
  <path
     id="path12195"
     style="fill:#ff0000;fill-opacity:1.0000000;fill-rule:evenodd;stroke:none;stroke-width:3.4289415;stroke-linecap:butt;stroke-linejoin:round;stroke-miterlimit:4.0000000;stroke-opacity:1.0000000"
     d="M 125.31035,139.99532 C 126.11306,139.98997 126.99505,139.79297 127.97148,139.35260 C 138.61546,131.15233 124.26613,117.92888 118.20740,106.57408 L 118.03250,106.51603 C 111.37417,118.92716 98.699178,132.58465 108.38396,139.35260 C 116.05650,142.81290 118.10613,131.29454 118.17772,130.87924 C 118.24021,131.24169 119.80563,140.03202 125.31035,139.99532 z " />
  <g
     id="g1581"
     style="fill-opacity:1.0000000;fill:#ff0000"
     transform="matrix(0.166355, 0, 0, 0.22966, 40.0539, 16.5524)">
    <path
       id="path1583"
       style="fill-rule:evenodd;stroke:none;stroke-width:3.4289415;stroke-linecap:butt;stroke-linejoin:round;stroke-miterlimit:4.0000000;stroke-opacity:1.0000000"
       transform="matrix(1.10538, 0, 0, 1.07964, -12.0141, -18.8673)"
       d="M 147.20601,156.41679 C 144.67035,156.42954 141.88421,156.89888 138.79976,157.94804 C 105.17650,177.48492 150.50459,208.98936 169.64351,236.04179 L 170.19602,236.18010 C 191.22900,206.61098 231.26801,174.07246 200.67476,157.94804 C 176.43799,149.70401 169.96344,177.14611 169.73726,178.13554 C 169.53987,177.27202 164.59485,156.32936 147.20601,156.41679 z " />
  </g>
  <g
     id="g1601"
     style="fill-opacity:1.0000000;fill:#ff0000"
     transform="matrix(-0.166355, 0, 0, -0.22966, 97.9461, 170.448)">
    <path
       id="path1603"
       style="fill-rule:evenodd;stroke:none;stroke-width:3.4289415;stroke-linecap:butt;stroke-linejoin:round;stroke-miterlimit:4.0000000;stroke-opacity:1.0000000"
       transform="matrix(1.10538, 0, 0, 1.07964, -12.0141, -18.8673)"
       d="M 147.20601,156.41679 C 144.67035,156.42954 141.88421,156.89888 138.79976,157.94804 C 105.17650,177.48492 150.50459,208.98936 169.64351,236.04179 L 170.19602,236.18010 C 191.22900,206.61098 231.26801,174.07246 200.67476,157.94804 C 176.43799,149.70401 169.96344,177.14611 169.73726,178.13554 C 169.53987,177.27202 164.59485,156.32936 147.20601,156.41679 z " />
  </g>
  <g
     id="g5202"
     transform="translate(152.037, 99.5671)">
    <g
       id="g5581"
       transform="translate(351.5, 184.5)" />
  </g>
  <g
     id="g6248"
     style="fill-opacity:1.0000000;fill:#ff0000"
     transform="matrix(0.166355, 0, 0, 0.22966, 19.0539, 5.77234)">
    <path
       id="path6250"
       style="fill-rule:evenodd;stroke:none;stroke-width:3.4289415;stroke-linecap:butt;stroke-linejoin:round;stroke-miterlimit:4.0000000;stroke-opacity:1.0000000"
       transform="matrix(1.10538, 0, 0, 1.07964, -12.0141, -18.8673)"
       d="M 147.20601,156.41679 C 144.67035,156.42954 141.88421,156.89888 138.79976,157.94804 C 105.17650,177.48492 150.50459,208.98936 169.64351,236.04179 L 170.19602,236.18010 C 191.22900,206.61098 231.26801,174.07246 200.67476,157.94804 C 176.43799,149.70401 169.96344,177.14611 169.73726,178.13554 C 169.53987,177.27202 164.59485,156.32936 147.20601,156.41679 z " />
  </g>
  <g
     id="g5250"
     style="fill-opacity:1.0000000;fill:#ff0000"
     transform="matrix(0.166355, 0, 0, 0.22966, 58.0539, 5.55238)">
    <path
       id="path5252"
       style="fill-rule:evenodd;stroke:none;stroke-width:3.4289415;stroke-linecap:butt;stroke-linejoin:round;stroke-miterlimit:4.0000000;stroke-opacity:1.0000000"
       transform="matrix(1.10538, 0, 0, 1.07964, -12.0141, -18.8673)"
       d="M 147.20601,156.41679 C 144.67035,156.42954 141.88421,156.89888 138.79976,157.94804 C 105.17650,177.48492 150.50459,208.98936 169.64351,236.04179 L 170.19602,236.18010 C 191.22900,206.61098 231.26801,174.07246 200.67476,157.94804 C 176.43799,149.70401 169.96344,177.14611 169.73726,178.13554 C 169.53987,177.27202 164.59485,156.32936 147.20601,156.41679 z " />
  </g>
  <g
     id="g5254"
     style="fill-opacity:1.0000000;fill:#ff0000"
     transform="matrix(0.166355, 0, 0, 0.22966, 19.6939, 36.7723)">
    <path
       id="path5256"
       style="fill-rule:evenodd;stroke:none;stroke-width:3.4289415;stroke-linecap:butt;stroke-linejoin:round;stroke-miterlimit:4.0000000;stroke-opacity:1.0000000"
       transform="matrix(1.10538, 0, 0, 1.07964, -12.0141, -18.8673)"
       d="M 147.20601,156.41679 C 144.67035,156.42954 141.88421,156.89888 138.79976,157.94804 C 105.17650,177.48492 150.50459,208.98936 169.64351,236.04179 L 170.19602,236.18010 C 191.22900,206.61098 231.26801,174.07246 200.67476,157.94804 C 176.43799,149.70401 169.96344,177.14611 169.73726,178.13554 C 169.53987,177.27202 164.59485,156.32936 147.20601,156.41679 z " />
  </g>
  <g
     id="g5258"
     style="fill-opacity:1.0000000;fill:#ff0000"
     transform="matrix(0.166355, 0, 0, 0.22966, 59.0539, 35.7723)">
    <path
       id="path5260"
       style="fill-rule:evenodd;stroke:none;stroke-width:3.4289415;stroke-linecap:butt;stroke-linejoin:round;stroke-miterlimit:4.0000000;stroke-opacity:1.0000000"
       transform="matrix(1.10538, 0, 0, 1.07964, -12.0141, -18.8673)"
       d="M 147.20601,156.41679 C 144.67035,156.42954 141.88421,156.89888 138.79976,157.94804 C 105.17650,177.48492 150.50459,208.98936 169.64351,236.04179 L 170.19602,236.18010 C 191.22900,206.61098 231.26801,174.07246 200.67476,157.94804 C 176.43799,149.70401 169.96344,177.14611 169.73726,178.13554 C 169.53987,177.27202 164.59485,156.32936 147.20601,156.41679 z " />
  </g>
  <g
     id="g5262"
     style="fill-opacity:1.0000000;fill:#ff0000"
     transform="matrix(-0.166355, 0, 0, -0.22966, 78.3061, 154.228)">
    <path
       id="path5264"
       style="fill-rule:evenodd;stroke:none;stroke-width:3.4289415;stroke-linecap:butt;stroke-linejoin:round;stroke-miterlimit:4.0000000;stroke-opacity:1.0000000"
       transform="matrix(1.10538, 0, 0, 1.07964, -12.0141, -18.8673)"
       d="M 147.20601,156.41679 C 144.67035,156.42954 141.88421,156.89888 138.79976,157.94804 C 105.17650,177.48492 150.50459,208.98936 169.64351,236.04179 L 170.19602,236.18010 C 191.22900,206.61098 231.26801,174.07246 200.67476,157.94804 C 176.43799,149.70401 169.96344,177.14611 169.73726,178.13554 C 169.53987,177.27202 164.59485,156.32936 147.20601,156.41679 z " />
  </g>
  <g
     id="g5266"
     style="fill-opacity:1.0000000;fill:#ff0000"
     transform="matrix(-0.166355, 0, 0, -0.22966, 78.9461, 181.228)">
    <path
       id="path5268"
       style="fill-rule:evenodd;stroke:none;stroke-width:3.4289415;stroke-linecap:butt;stroke-linejoin:round;stroke-miterlimit:4.0000000;stroke-opacity:1.0000000"
       transform="matrix(1.10538, 0, 0, 1.07964, -12.0141, -18.8673)"
       d="M 147.20601,156.41679 C 144.67035,156.42954 141.88421,156.89888 138.79976,157.94804 C 105.17650,177.48492 150.50459,208.98936 169.64351,236.04179 L 170.19602,236.18010 C 191.22900,206.61098 231.26801,174.07246 200.67476,157.94804 C 176.43799,149.70401 169.96344,177.14611 169.73726,178.13554 C 169.53987,177.27202 164.59485,156.32936 147.20601,156.41679 z " />
  </g>
  <g
     id="g5270"
     style="fill-opacity:1.0000000;fill:#ff0000"
     transform="matrix(-0.166355, 0, 0, -0.22966, 116.306, 181.228)">
    <path
       id="path5272"
       style="fill-rule:evenodd;stroke:none;stroke-width:3.4289415;stroke-linecap:butt;stroke-linejoin:round;stroke-miterlimit:4.0000000;stroke-opacity:1.0000000"
       transform="matrix(1.10538, 0, 0, 1.07964, -12.0141, -18.8673)"
       d="M 147.20601,156.41679 C 144.67035,156.42954 141.88421,156.89888 138.79976,157.94804 C 105.17650,177.48492 150.50459,208.98936 169.64351,236.04179 L 170.19602,236.18010 C 191.22900,206.61098 231.26801,174.07246 200.67476,157.94804 C 176.43799,149.70401 169.96344,177.14611 169.73726,178.13554 C 169.53987,177.27202 164.59485,156.32936 147.20601,156.41679 z " />
  </g>
  <g
     id="g5274"
     style="fill-opacity:1.0000000;fill:#ff0000"
     transform="matrix(-0.166355, 0, 0, -0.22966, 117.946, 153.448)">
    <path
       id="path5276"
       style="fill-rule:evenodd;stroke:none;stroke-width:3.4289415;stroke-linecap:butt;stroke-linejoin:round;stroke-miterlimit:4.0000000;stroke-opacity:1.0000000"
       transform="matrix(1.10538, 0, 0, 1.07964, -12.0141, -18.8673)"
       d="M 147.20601,156.41679 C 144.67035,156.42954 141.88421,156.89888 138.79976,157.94804 C 105.17650,177.48492 150.50459,208.98936 169.64351,236.04179 L 170.19602,236.18010 C 191.22900,206.61098 231.26801,174.07246 200.67476,157.94804 C 176.43799,149.70401 169.96344,177.14611 169.73726,178.13554 C 169.53987,177.27202 164.59485,156.32936 147.20601,156.41679 z " />
  </g>
  <metadata
     id="metadata47">
    <rdf:RDF>
      <cc:Work
         rdf:about="">
        <dc:title>card</dc:title>
        <dc:description />
        <dc:subject>
          <rdf:Bag>
            <rdf:li>ornamental</rdf:li>
            <rdf:li>card</rdf:li>
          </rdf:Bag>
        </dc:subject>
        <dc:publisher>
          <cc:Agent>
            <dc:title />
          </cc:Agent>
        </dc:publisher>
        <dc:creator>
          <cc:Agent>
            <dc:title>Nicu Buculei</dc:title>
          </cc:Agent>
        </dc:creator>
        <dc:rights>
          <cc:Agent>
            <dc:title>Nicu Buculei</dc:title>
          </cc:Agent>
        </dc:rights>
        <dc:date />
        <dc:format>image/svg+xml</dc:format>
        <dc:type
           rdf:resource="http://purl.org/dc/dcmitype/StillImage" />
        <cc:license
           rdf:resource="http://web.resource.org/cc/PublicDomain" />
        <dc:language>en</dc:language>
      </cc:Work>
      <cc:License
         rdf:about="http://web.resource.org/cc/PublicDomain">
        <cc:permits
           rdf:resource="http://web.resource.org/cc/Reproduction" />
        <cc:permits
           rdf:resource="http://web.resource.org/cc/Distribution" />
        <cc:permits
           rdf:resource="http://web.resource.org/cc/DerivativeWorks" />
      </cc:License>
    </rdf:RDF>
  </metadata>
</svg>
