<?xml version="1.0" encoding="UTF-8" standalone="no"?>
<!-- Created with Inkscape (http://www.inkscape.org/) -->

<svg
   xmlns:dc="http://purl.org/dc/elements/1.1/"
   xmlns:cc="http://creativecommons.org/ns#"
   xmlns:rdf="http://www.w3.org/1999/02/22-rdf-syntax-ns#"
   xmlns:svg="http://www.w3.org/2000/svg"
   xmlns="http://www.w3.org/2000/svg"
   xmlns:xlink="http://www.w3.org/1999/xlink"
   xmlns:sodipodi="http://sodipodi.sourceforge.net/DTD/sodipodi-0.dtd"
   xmlns:inkscape="http://www.inkscape.org/namespaces/inkscape"
   id="svg2"
   height="190.00000"
   width="140.00000"
   y="0.0000000"
   x="0.0000000"
   version="1.0"
   sodipodi:version="0.32"
   inkscape:version="0.48.0 r9654"
   sodipodi:docname="nicubunu_Ornamental_deck_5_of_hearts.svg">
  <sodipodi:namedview
     id="base"
     pagecolor="#ffffff"
     bordercolor="#666666"
     borderopacity="1.0"
     inkscape:pageopacity="0.0"
     inkscape:pageshadow="2"
     inkscape:window-width="1152"
     inkscape:window-height="791"
     inkscape:zoom="1.9105263"
     inkscape:cx="70.000003"
     inkscape:cy="95.000001"
     inkscape:window-x="0"
     inkscape:window-y="26"
     inkscape:current-layer="layer1"
     showgrid="false"
     inkscape:window-maximized="0" />
  <defs
     id="defs3">
    <linearGradient
       id="linearGradient2060">
      <stop
         id="stop2062"
         offset="0.0000000"
         style="stop-color:#ebf0d0;stop-opacity:1.0000000;" />
      <stop
         id="stop2064"
         offset="1.0000000"
         style="stop-color:#ffffeb;stop-opacity:1.0000000;" />
    </linearGradient>
    <linearGradient
       gradientTransform="translate(0, -1)"
       gradientUnits="userSpaceOnUse"
       xlink:href="#linearGradient2060"
       id="linearGradient4853"
       y2="128.69501"
       x2="109.00000"
       y1="63.099518"
       x1="2.0000000" />
    <linearGradient
       y2="128.69501"
       x2="109.00000"
       y1="63.099518"
       x1="2.0000000"
       gradientTransform="translate(0,-1)"
       gradientUnits="userSpaceOnUse"
       id="linearGradient21901"
       xlink:href="#linearGradient2060"
       inkscape:collect="always" />
  </defs>
  <g
     inkscape:label="Layer 1"
     inkscape:groupmode="layer"
     id="layer1">
    <g
       id="g5202"
       transform="translate(152.037, 99.5671)">
      <g
         id="g5581"
         transform="translate(351.5, 184.5)" />
    </g>
  </g>
  <path
     id="text1386"
     style="font-size:37.418461;font-style:normal;font-variant:normal;font-weight:bold;font-stretch:normal;fill:#ff0000;fill-opacity:1.0000000;stroke:none;stroke-width:1.0000000px;stroke-linecap:butt;stroke-linejoin:miter;stroke-opacity:1.0000000;font-family:Bitstream Vera Sans;text-anchor:start;writing-mode:lr-tb"
     d="M 12.603619,11.998106 L 28.502498,11.998106 L 28.502498,17.684585 L 17.703886,17.684585 L 17.703886,22.326199 C 18.191199,22.165471 18.678521,22.044909 19.165852,21.964515 C 19.664239,21.870765 20.179249,21.823880 20.710884,21.823860 C 23.734481,21.823880 26.088022,22.741486 27.771515,24.576678 C 29.454970,26.398511 30.296708,28.943694 30.296729,32.212234 C 30.296708,35.454003 29.377442,37.992487 27.538929,39.827697 C 25.711455,41.662909 23.169631,42.580515 19.913449,42.580515 C 18.506850,42.580515 17.111339,42.413069 15.726910,42.078176 C 14.353543,41.756679 12.985720,41.261039 11.623437,40.591252 L 11.623437,34.502900 C 12.974644,35.440608 14.253863,36.143882 15.461098,36.612725 C 16.679395,37.081580 17.825708,37.316005 18.900040,37.316000 C 20.450599,37.316005 21.668902,36.860551 22.554955,35.949638 C 23.452056,35.025341 23.900613,33.779541 23.900628,32.212234 C 23.900613,30.631552 23.452056,29.385751 22.554955,28.474831 C 21.668902,27.563937 20.450599,27.108483 18.900040,27.108468 C 17.980765,27.108483 17.000585,27.255836 15.959495,27.550527 C 14.918392,27.831851 13.799768,28.273909 12.603619,28.876702 L 12.603619,11.998106" />
  <g
     id="g1390"
     style="fill:#ff0000;fill-opacity:1.0000000"
     transform="matrix(0.286388, 0, 0, 0.388772, -29.6083, -9.47241)">
    <path
       id="path1392"
       style="fill-rule:evenodd;stroke:none;stroke-width:3.4289415;stroke-linecap:butt;stroke-linejoin:round;stroke-miterlimit:4.0000000;stroke-opacity:1.0000000"
       transform="matrix(1.10538, 0, 0, 1.07964, -12.0141, -18.8673)"
       d="M 147.20601,156.41679 C 144.67035,156.42954 141.88421,156.89888 138.79976,157.94804 C 105.17650,177.48492 150.50459,208.98936 169.64351,236.04179 L 170.19602,236.18010 C 191.22900,206.61098 231.26801,174.07246 200.67476,157.94804 C 176.43799,149.70401 169.96344,177.14611 169.73726,178.13554 C 169.53987,177.27202 164.59485,156.32936 147.20601,156.41679 z " />
  </g>
  <path
     id="text13635"
     style="font-size:37.418461;font-style:normal;font-variant:normal;font-weight:bold;font-stretch:normal;fill:#ff0000;fill-opacity:1.0000000;stroke:none;stroke-width:1.0000000px;stroke-linecap:butt;stroke-linejoin:miter;stroke-opacity:1.0000000;font-family:Bitstream Vera Sans;text-anchor:start;writing-mode:lr-tb"
     d="M 126.26183,177.00182 L 110.36296,177.00182 L 110.36296,171.31535 L 121.16156,171.31535 L 121.16156,166.67373 C 120.67425,166.83445 120.18693,166.95502 119.69960,167.03541 C 119.20121,167.12916 118.68621,167.17605 118.15457,167.17606 C 115.13097,167.17605 112.77743,166.25844 111.09394,164.42325 C 109.41048,162.60141 108.56874,160.05623 108.56873,156.78770 C 108.56874,153.54592 109.48801,151.00744 111.32652,149.17223 C 113.15400,147.33702 115.69582,146.41942 118.95201,146.41942 C 120.35860,146.41942 121.75411,146.58686 123.13854,146.92176 C 124.51191,147.24325 125.87974,147.73888 127.24201,148.40868 L 127.24201,154.49703 C 125.89081,153.55932 124.61159,152.85605 123.40435,152.38721 C 122.18606,151.91834 121.03975,151.68393 119.96541,151.68393 C 118.41486,151.68393 117.19655,152.13938 116.31050,153.05029 C 115.41340,153.97459 114.96484,155.22039 114.96482,156.78770 C 114.96484,158.36837 115.41340,159.61418 116.31050,160.52510 C 117.19655,161.43599 118.41486,161.89145 119.96541,161.89146 C 120.88469,161.89145 121.86487,161.74409 122.90596,161.44941 C 123.94706,161.16808 125.06568,160.72602 126.26183,160.12323 L 126.26183,177.00182" />
  <g
     id="g13639"
     style="fill:#ff0000;fill-opacity:1.0000000"
     transform="matrix(-0.286388, 0, 0, -0.388772, 168.47, 198.314)">
    <path
       id="path13641"
       style="fill-rule:evenodd;stroke:none;stroke-width:3.4289415;stroke-linecap:butt;stroke-linejoin:round;stroke-miterlimit:4.0000000;stroke-opacity:1.0000000"
       transform="matrix(1.10538, 0, 0, 1.07964, -12.0141, -18.8673)"
       d="M 147.20601,156.41679 C 144.67035,156.42954 141.88421,156.89888 138.79976,157.94804 C 105.17650,177.48492 150.50459,208.98936 169.64351,236.04179 L 170.19602,236.18010 C 191.22900,206.61098 231.26801,174.07246 200.67476,157.94804 C 176.43799,149.70401 169.96344,177.14611 169.73726,178.13554 C 169.53987,177.27202 164.59485,156.32936 147.20601,156.41679 z " />
  </g>
  <g
     id="g3558">
    <g
       id="g2352"
       transform="translate(333.5, 184.5)" />
    <g
       id="g2569">
      <g
         id="g3424">
        <g
           id="g3925"
           transform="translate(329.5, 183.5)" />
      </g>
    </g>
  </g>
  <g
     id="g1861"
     style="fill-opacity:1.0000000;fill:#ff0000"
     transform="matrix(0.166355, 0, 0, 0.22966, 22.0539, 10.7723)">
    <path
       id="path1863"
       style="fill-rule:evenodd;stroke:none;stroke-width:3.4289415;stroke-linecap:butt;stroke-linejoin:round;stroke-miterlimit:4.0000000;stroke-opacity:1.0000000"
       transform="matrix(1.10538, 0, 0, 1.07964, -12.0141, -18.8673)"
       d="M 147.20601,156.41679 C 144.67035,156.42954 141.88421,156.89888 138.79976,157.94804 C 105.17650,177.48492 150.50459,208.98936 169.64351,236.04179 L 170.19602,236.18010 C 191.22900,206.61098 231.26801,174.07246 200.67476,157.94804 C 176.43799,149.70401 169.96344,177.14611 169.73726,178.13554 C 169.53987,177.27202 164.59485,156.32936 147.20601,156.41679 z " />
  </g>
  <g
     id="g3606"
     style="fill-opacity:1.0000000;fill:#ff0000"
     transform="matrix(0.166355, 0, 0, 0.22966, 58.0539, 10.7723)">
    <path
       id="path3608"
       style="fill-rule:evenodd;stroke:none;stroke-width:3.4289415;stroke-linecap:butt;stroke-linejoin:round;stroke-miterlimit:4.0000000;stroke-opacity:1.0000000"
       transform="matrix(1.10538, 0, 0, 1.07964, -12.0141, -18.8673)"
       d="M 147.20601,156.41679 C 144.67035,156.42954 141.88421,156.89888 138.79976,157.94804 C 105.17650,177.48492 150.50459,208.98936 169.64351,236.04179 L 170.19602,236.18010 C 191.22900,206.61098 231.26801,174.07246 200.67476,157.94804 C 176.43799,149.70401 169.96344,177.14611 169.73726,178.13554 C 169.53987,177.27202 164.59485,156.32936 147.20601,156.41679 z " />
  </g>
  <g
     id="g3610"
     style="fill-opacity:1.0000000;fill:#ff0000"
     transform="matrix(0.166355, 0, 0, 0.22966, 40.6939, 47.7723)">
    <path
       id="path3612"
       style="fill-rule:evenodd;stroke:none;stroke-width:3.4289415;stroke-linecap:butt;stroke-linejoin:round;stroke-miterlimit:4.0000000;stroke-opacity:1.0000000"
       transform="matrix(1.10538, 0, 0, 1.07964, -12.0141, -18.8673)"
       d="M 147.20601,156.41679 C 144.67035,156.42954 141.88421,156.89888 138.79976,157.94804 C 105.17650,177.48492 150.50459,208.98936 169.64351,236.04179 L 170.19602,236.18010 C 191.22900,206.61098 231.26801,174.07246 200.67476,157.94804 C 176.43799,149.70401 169.96344,177.14611 169.73726,178.13554 C 169.53987,177.27202 164.59485,156.32936 147.20601,156.41679 z " />
  </g>
  <g
     id="g3614"
     style="fill-opacity:1.0000000;fill:#ff0000"
     transform="matrix(-0.166355, 0, 0, -0.22966, 82.3061, 176.228)">
    <path
       id="path3616"
       style="fill-rule:evenodd;stroke:none;stroke-width:3.4289415;stroke-linecap:butt;stroke-linejoin:round;stroke-miterlimit:4.0000000;stroke-opacity:1.0000000"
       transform="matrix(1.10538, 0, 0, 1.07964, -12.0141, -18.8673)"
       d="M 147.20601,156.41679 C 144.67035,156.42954 141.88421,156.89888 138.79976,157.94804 C 105.17650,177.48492 150.50459,208.98936 169.64351,236.04179 L 170.19602,236.18010 C 191.22900,206.61098 231.26801,174.07246 200.67476,157.94804 C 176.43799,149.70401 169.96344,177.14611 169.73726,178.13554 C 169.53987,177.27202 164.59485,156.32936 147.20601,156.41679 z " />
  </g>
  <g
     id="g3618"
     style="fill-opacity:1.0000000;fill:#ff0000"
     transform="matrix(-0.166355, 0, 0, -0.22966, 117.306, 176.228)">
    <path
       id="path3620"
       style="fill-rule:evenodd;stroke:none;stroke-width:3.4289415;stroke-linecap:butt;stroke-linejoin:round;stroke-miterlimit:4.0000000;stroke-opacity:1.0000000"
       transform="matrix(1.10538, 0, 0, 1.07964, -12.0141, -18.8673)"
       d="M 147.20601,156.41679 C 144.67035,156.42954 141.88421,156.89888 138.79976,157.94804 C 105.17650,177.48492 150.50459,208.98936 169.64351,236.04179 L 170.19602,236.18010 C 191.22900,206.61098 231.26801,174.07246 200.67476,157.94804 C 176.43799,149.70401 169.96344,177.14611 169.73726,178.13554 C 169.53987,177.27202 164.59485,156.32936 147.20601,156.41679 z " />
  </g>
  <metadata
     id="metadata41">
    <rdf:RDF>
      <cc:Work
         rdf:about="">
        <dc:title>card</dc:title>
        <dc:description />
        <dc:subject>
          <rdf:Bag>
            <rdf:li>ornamental</rdf:li>
            <rdf:li>card</rdf:li>
          </rdf:Bag>
        </dc:subject>
        <dc:publisher>
          <cc:Agent>
            <dc:title />
          </cc:Agent>
        </dc:publisher>
        <dc:creator>
          <cc:Agent>
            <dc:title>Nicu Buculei</dc:title>
          </cc:Agent>
        </dc:creator>
        <dc:rights>
          <cc:Agent>
            <dc:title>Nicu Buculei</dc:title>
          </cc:Agent>
        </dc:rights>
        <dc:date />
        <dc:format>image/svg+xml</dc:format>
        <dc:type
           rdf:resource="http://purl.org/dc/dcmitype/StillImage" />
        <cc:license
           rdf:resource="http://web.resource.org/cc/PublicDomain" />
        <dc:language>en</dc:language>
      </cc:Work>
      <cc:License
         rdf:about="http://web.resource.org/cc/PublicDomain">
        <cc:permits
           rdf:resource="http://web.resource.org/cc/Reproduction" />
        <cc:permits
           rdf:resource="http://web.resource.org/cc/Distribution" />
        <cc:permits
           rdf:resource="http://web.resource.org/cc/DerivativeWorks" />
      </cc:License>
    </rdf:RDF>
  </metadata>
</svg>
